<svg xmlns="http://www.w3.org/2000/svg" direction="ltr" width="1009.205182597771" height="220.92463336669653" viewBox="748.149813819887 1301.8590199158175 1009.205182597771 220.92463336669653" stroke-linecap="round" stroke-linejoin="round"><defs/><g transform="matrix(0.9994, -0.0349, 0.0349, 0.9994, 780.1498, 1476.5452)" opacity="1"><path d="M0,-1.8976 T2.923,-1.8013 9.7797,-1.6317 18.9799,-1.5037 29.4599,-1.4083 38.6895,-1.338 49.5759,-1.2864 62.3611,-1.0531 76.5783,-0.3325 95.0707,1.0408 117.045,2.7675 143.8181,4.1014 171.6854,5.0267 196.6713,6.1178 221.0767,8.2775 246.7158,11.9973 271.0204,15.779 291.2853,18.6197 309.3387,20.5589 325.9884,21.6159 340.1319,21.9989 350.1617,21.8188 357.2076,21.5256 366.5816,21.7559 379.1421,22.6642 390.8599,23.7466 402.886,24.7239 417.4405,25.8406 434.5441,27.036 451.8502,27.8827 467.3506,28.5407 482.6602,29.487 497.4373,30.3934 509.9651,30.8872 518.7259,30.962 525.0656,30.8077 533.0392,30.7233 545.1878,30.6773 564.4769,30.4571 585.5319,30.1416 605.0283,29.9693 625.2246,29.8752 643.2683,29.8238 658.5779,29.7957 669.6669,29.7804 677.7263,30.1651 688.0304,31.5495 704.8937,33.2738 729.2292,34.2093 759.0899,34.5275 790.0256,34.702 817.2492,34.7973 839.3381,35.0446 856.0787,35.3749 868.1544,35.751 878.1059,36.5448 888.4059,37.5613 898.8787,38.5027 907.9023,39.2113 915.9242,39.597 923.9986,39.8076 930.749,39.923 935.8001,39.9861 939.7282,40.0205 942.4573,39.9804 944.4343,39.8832 945.3224,39.8384 A1.3716,1.3716 0 0 1 945.2976,42.5816 T944.4142,42.5207 942.4411,42.3943 939.7085,42.3165 935.772,42.282 930.7105,42.2188 923.9388,42.1029 915.8132,41.8901 907.7265,41.5005 898.6731,40.7895 888.1792,39.8461 877.9224,38.8327 868.0761,38.0454 856.0343,37.6705 839.3097,37.3404 817.2413,37.0934 790.0128,36.9981 759.0646,36.8235 729.1328,36.5026 704.6354,35.5531 687.7394,33.826 677.6154,32.4557 669.6695,32.0765 658.5821,32.0918 643.2747,32.1199 625.2352,32.1712 605.0491,32.2653 585.5655,32.4375 564.499,32.753 545.1975,32.9733 533.0662,33.0192 525.1209,33.1031 518.7253,33.257 509.8766,33.1815 497.2987,32.6852 482.5192,31.7787 467.2528,30.8349 451.7399,30.1762 434.3816,29.3264 417.2659,28.1304 402.6963,27.0123 390.6478,26.0334 378.9771,24.9549 366.5547,24.0509 357.301,23.8213 350.2173,24.1157 340.0759,24.2968 325.8445,23.9115 309.0952,22.8471 290.9666,20.9018 270.668,18.0591 246.3861,14.2847 220.8736,10.5846 196.5696,8.441 171.6081,7.3621 143.6961,6.4497 116.8596,5.1334 94.8985,3.4367 76.4651,2.107 62.3203,1.4435 49.5759,1.2864 38.6895,1.338 29.4599,1.4083 18.9799,1.5037 9.7797,1.6317 2.923,1.8013 0,1.8976 A1.8976,1.8976 0 0 1 0,-1.8976 ZM945.31,42.5816 T944.45,42.6356 943.59,42.6897 A1.4797,1.4797 0 0 1 943.59,39.7303 T944.45,39.7844 945.31,39.8384 A1.3716,1.3716 0 0 1 945.31,42.5816 Z" stroke-linecap="round" fill="#007782"/></g><g transform="matrix(0.9994, -0.0349, 0.0349, 0.9994, 863.4421, 1475.3548)" opacity="1"><path d="M-1.8174,-0.5459 T-1.1397,-2.4676 0.52,-7.0158 2.0137,-13.4476 2.8302,-24.4207 3.3116,-39.0313 3.5902,-52.101 3.9479,-62.7728 4.7411,-71.5899 6.1657,-79.0074 7.7335,-85.0242 8.7693,-89.5854 9.3238,-93.3757 9.595,-96.2322 9.4813,-98.5803 9.2961,-99.6724 A1.4712,1.4712 0 0 1 12.0868,-100.6051 T12.1079,-98.9414 11.9826,-95.9848 11.6367,-93.0463 11.0614,-89.076 10.0284,-84.4216 8.5227,-78.5587 7.1702,-71.3625 6.4436,-62.6957 6.1626,-52.0572 5.9863,-38.9546 5.6349,-24.1915 4.9266,-12.7686 3.628,-6.0245 2.3107,-1.4312 1.8174,0.5459 A1.8976,1.8976 0 0 1 -1.8174,-0.5459 ZM11.8817,-99.274 T11.7223,-98.9782 11.5629,-98.6824 A1.5611,1.5611 0 0 1 9.0371,-100.5176 T9.2691,-100.7606 9.5012,-101.0036 A1.4712,1.4712 0 0 1 11.8817,-99.274 Z" stroke-linecap="round" fill="#007782"/></g><g transform="matrix(0.9994, -0.0349, 0.0349, 0.9994, 870.263, 1375.4596)" opacity="1"><path d="M-0.8804,1.7556 T-1.6601,1.3663 -3.9833,-0.1678 -6.2657,-2.2169 -7.4061,-5.0806 -8.2927,-9.4488 -9.2311,-14.79 -10.1111,-20.4721 -10.9576,-25.8938 -11.6068,-31.2406 -11.9549,-35.9542 -11.9965,-39.2081 -11.1101,-41.8685 -8.8254,-42.2823 -6.5722,-39.6127 -4.9962,-36.3069 -3.2146,-32.9956 -1.4399,-29.3511 -0.049,-25.7161 1.2298,-22.8911 2.19,-21.0143 2.471,-20.3282 A1.4208,1.4208 0 0 1 2.4204,-17.4869 T1.7939,-17.7008 0.4655,-19.2002 -1.0066,-21.8405 -2.4013,-24.7929 -3.7615,-28.1715 -5.5947,-31.6598 -7.5691,-34.985 -9.5323,-38.5161 -9.9423,-40.2799 -9.4319,-39.141 -9.4473,-36.1528 -9.0326,-31.5808 -8.2851,-26.3491 -7.2888,-20.9607 -6.2239,-15.409 -5.0224,-10.1695 -3.6785,-6.039 -1.8289,-3.4323 0.1034,-2.1469 0.8804,-1.7556 A1.964,1.964 0 0 1 -0.8804,1.7556 ZM1.12,-19.4188 T1.2923,-20.0126 1.8319,-22.8349 2.5508,-26.3284 3.2858,-28.5576 4.3381,-30.5274 5.9074,-32.2225 8.0536,-33.5579 10.6865,-34.6057 13.0755,-35.3861 15.0204,-36.1765 16.7475,-36.7134 17.5314,-36.8385 A1.705,1.705 0 0 1 17.7038,-33.4328 T17.4302,-33.5043 16.1635,-33.175 14.0559,-32.3793 11.8834,-31.6848 9.2006,-30.5054 6.6731,-28.2 5.4455,-25.6573 4.921,-23.0978 4.5208,-20.5905 4.0459,-18.961 3.7714,-18.3963 A1.4208,1.4208 0 0 1 1.12,-19.4188 ZM19.3,-35.4125 T19.4283,-34.8489 19.6118,-33.0903 19.416,-30.2013 19.0644,-27.2871 18.9308,-25.0154 18.6428,-22.4097 18.3879,-20.8555 A1.754,1.754 0 0 1 15.2431,-22.4099 T15.4627,-23.2618 15.7491,-25.2055 15.8979,-27.572 16.0635,-30.2917 16.1,-32.7241 15.9941,-34.2851 15.9352,-34.8587 A1.705,1.705 0 0 1 19.3,-35.4125 ZM15.4024,-20.5935 T15.2721,-20.738 15.1417,-20.8825 A1.7928,1.7928 0 0 1 18.0304,-23.0068 T18.1294,-22.8393 18.2285,-22.6718 A1.754,1.754 0 0 1 15.4024,-20.5935 ZM15.1098,-22.9619 T15.4603,-23.4948 17.5106,-24.8646 20.7533,-26.3805 23.9889,-27.6413 27.0979,-28.8801 29.781,-29.9802 32.6256,-30.877 34.8,-31.4435 35.3967,-31.5566 A1.6714,1.6714 0 0 1 35.7803,-28.2358 T35.2704,-28.221 33.3397,-27.997 30.8118,-27.4463 28.195,-26.3245 25.1647,-24.9243 22.1537,-23.4971 19.6676,-22.2267 18.3672,-21.3455 18.0623,-20.9273 A1.7928,1.7928 0 0 1 15.1098,-22.9619 ZM37.0537,-30.7003 T37.3881,-30.1674 37.7224,-29.6344 A1.7448,1.7448 0 0 1 34.6633,-27.9556 T34.3932,-28.5238 34.1232,-29.092 A1.6714,1.6714 0 0 1 37.0537,-30.7003 ZM37.8511,-28.2525 T37.6427,-27.5359 36.1253,-25.2524 34.0005,-22.745 32.0652,-20.8489 29.2061,-18.293 25.0328,-15.15 20.5601,-12.2431 16.3712,-9.711 12.6785,-7.7281 9.9081,-6.2548 7.5423,-5.1612 5.1299,-4.2982 3.8559,-3.8704 A1.3486,1.3486 0 0 1 3.0041,-6.4296 T4.2804,-6.8506 6.5379,-7.542 8.7433,-8.4455 11.4841,-9.9145 15.024,-11.8898 19.0837,-14.4613 23.2989,-17.3341 27.1884,-20.4941 29.8182,-23.0554 31.5094,-24.8195 33.1659,-26.8786 34.2924,-28.6766 34.5345,-29.3375 A1.7448,1.7448 0 0 1 37.8511,-28.2525 Z" stroke-linecap="round" fill="#007782"/></g><g transform="matrix(0.9994, -0.0349, 0.0349, 0.9994, 866.4848, 1464.0801)" opacity="1"><path d="M-0.9771,-1.6247 T0.0091,-2.1891 2.1149,-3.4004 4.5036,-5.3997 8.066,-10.2015 12.2684,-16.1979 15.9851,-21.2711 19.3648,-26.1386 22.2114,-30.1815 24.811,-33.2469 27.257,-35.5696 29.3696,-37.2792 30.5279,-38.334 30.6947,-38.6383 A1.3758,1.3758 0 0 1 32.8453,-36.9217 T32.3683,-36.4196 30.9268,-35.2828 28.9225,-33.7861 26.6807,-31.6674 24.2704,-28.7443 21.5086,-24.6806 18.1843,-19.6991 14.6203,-14.5833 10.4858,-8.3472 6.6364,-2.8842 4.0137,-0.3572 1.938,1.0181 0.9771,1.6247 A1.8959,1.8959 0 0 1 -0.9771,-1.6247 ZM32.9384,-37.0536 T32.3045,-35.9549 30.9711,-33.895 28.5205,-30.5616 25.4426,-25.9666 23.189,-21.9516 21.3506,-18.3842 19.3126,-14.9845 17.4155,-12.141 15.7882,-9.9322 14.3032,-8.2122 12.5275,-6.9248 10.5209,-5.9527 8.8067,-5.1081 6.6123,-4.2295 4.1963,-3.0328 2.0529,-1.5975 0.9858,-0.9099 A1.9394,1.9394 0 0 1 -0.9858,-4.2501 T-0.308,-4.6353 1.4858,-5.4605 3.4537,-6.5051 5.4491,-7.355 7.5015,-7.9929 9.3512,-8.7614 11.665,-9.9262 13.8147,-11.4698 15.381,-13.4847 17.1877,-16.239 19.0809,-19.5241 20.8756,-23.2024 23.1304,-27.46 26.1716,-32.3033 28.5099,-35.5478 29.8725,-37.4129 30.6016,-38.5064 A1.3758,1.3758 0 0 1 32.9384,-37.0536 Z" stroke-linecap="round" fill="#007782"/></g><g transform="matrix(0.9994, -0.0349, 0.0349, 0.9994, 977.8645, 1479.9502)" opacity="1"><path d="M-1.6478,-0.7312 T-0.7926,-2.4477 0.5004,-5.9296 1.4139,-9.5256 2.1432,-13.6281 2.7461,-18.7571 3.6796,-27.446 4.5848,-39.5568 5.0843,-51.2201 5.3623,-60.1305 5.5174,-66.1663 5.6042,-71.0168 5.6533,-75.2225 5.6813,-78.6881 5.7029,-82.2175 5.7142,-84.1459 A1.1558,1.1558 0 0 1 8.0258,-84.1341 T8.0174,-82.2056 8.0028,-78.6728 7.9843,-75.1994 7.9483,-70.9795 7.8793,-66.1117 7.749,-60.0619 7.5045,-51.1226 7.0473,-39.3766 6.2007,-27.1809 5.3559,-18.4811 4.8468,-13.1785 4.2547,-8.8842 3.4634,-4.9505 2.3494,-1.0607 1.6478,0.7312 A1.8028,1.8028 0 0 1 -1.6478,-0.7312 Z" stroke-linecap="round" fill="#007782"/></g><g transform="matrix(0.9994, -0.0349, 0.0349, 0.9994, 980.0764, 1395.68)" opacity="1"><path d="M-1.839,-0.2632 T-1.5805,-1.6141 -1.3753,-4.1153 -2.1534,-7.5657 -3.6602,-11.9799 -5.2492,-16.0286 -6.6989,-19.6399 -7.7509,-22.4384 -8.4206,-24.617 -8.8383,-26.6562 -9.1013,-28.3616 -9.207,-29.0846 A1.6238,1.6238 0 0 1 -5.9706,-29.3548 T-5.9591,-28.673 -5.7571,-26.201 -5.2555,-23.3434 -4.2685,-20.6582 -2.6991,-17.0873 -0.9042,-12.9796 0.9262,-8.1683 1.9788,-4.001 1.9709,-1.1137 1.839,0.2632 A1.8577,1.8577 0 0 1 -1.839,-0.2632 ZM-8.7755,-30.3281 T-8.409,-30.7634 -7.0829,-31.6411 -4.5985,-31.8163 -2.0511,-31.0981 -0.244,-29.5769 1.1901,-26.833 2.1921,-24.0576 2.9197,-22.0154 3.7258,-19.5965 4.4541,-17.4669 4.7512,-16.8158 A1.9912,1.9912 0 0 1 1.0098,-15.4516 T0.7203,-16.4092 0.1889,-18.5438 -0.4752,-20.7483 -1.2898,-22.8479 -2.1563,-25.3248 -3.2818,-27.4443 -4.8176,-28.467 -6.0521,-28.4432 -6.4022,-28.1113 A1.6238,1.6238 0 0 1 -8.7755,-30.3281 ZM2.6334,-18.1095 T2.9509,-18.168 3.2685,-18.2266 A2.0285,2.0285 0 0 1 3.772,-14.2009 T3.4498,-14.1794 3.1276,-14.1579 A1.9912,1.9912 0 0 1 2.6334,-18.1095 ZM1.5196,-16.5492 T1.8162,-18.0857 2.6541,-20.9439 3.6774,-23.5142 4.8932,-26.1601 6.1762,-28.6735 7.2832,-30.5751 8.8182,-32.2371 10.4143,-33.4683 11.0331,-33.823 A1.8631,1.8631 0 0 1 12.6118,-30.4477 T11.8377,-30.0039 10.3184,-28.9781 9.0497,-27.2873 8.0023,-24.9313 6.7432,-21.4664 5.7645,-17.5635 5.5208,-15.8783 A2.0285,2.0285 0 0 1 1.5196,-16.5492 ZM13.52,-32.9033 T13.9953,-31.9082 14.3443,-29.5203 14.0873,-26.8249 13.6345,-23.9201 12.9237,-20.68 12.3281,-17.6393 12.3376,-15.2008 12.5538,-14.1653 A1.5862,1.5862 0 0 1 9.8599,-12.49 T9.4771,-13.4282 9.2095,-15.4693 9.4695,-18.0981 9.8693,-21.2136 10.2663,-24.2512 10.5334,-27.8879 10.3917,-30.722 10.1249,-31.3675 A1.8631,1.8631 0 0 1 13.52,-32.9033 ZM10.952,-14.8932 T11.4959,-15.0196 13.009,-16.2924 14.5507,-18.4591 15.6593,-20.9312 16.4731,-23.5762 17.1093,-25.7834 18.5134,-27.9689 21.1682,-29.2971 23.6179,-28.7391 24.8819,-26.6045 25.2338,-23.7889 24.8834,-21.072 24.2534,-18.6081 23.0227,-15.8247 21.2458,-12.8935 19.2456,-10.311 17.3848,-8.098 15.2476,-6.363 12.8264,-4.9606 10.6577,-3.7034 8.8397,-2.3355 6.9424,-0.4901 4.7357,1.0844 2.2719,2.0801 -0.1229,3.0209 -1.054,3.3939 A1.8015,1.8015 0 0 1 -2.386,0.0461 T-0.5943,-0.6369 2.6923,-1.7979 5.154,-3.0344 7.0801,-4.6355 9.2179,-6.2022 11.4337,-7.4679 13.4755,-8.5491 15.2305,-9.9325 16.9228,-11.9998 18.578,-14.4046 19.9292,-17.0401 20.8608,-19.4549 21.4048,-22.4077 21.2952,-25.2611 20.282,-25.1112 19.3255,-22.7715 18.4927,-19.6968 17.3008,-16.6903 15.6728,-14.1922 13.6904,-12.4192 12.0675,-11.8227 11.4617,-11.762 A1.5862,1.5862 0 0 1 10.952,-14.8932 Z" stroke-linecap="round" fill="#007782"/></g><g transform="matrix(0.9994, -0.0349, 0.0349, 0.9994, 980.9971, 1471.2497)" opacity="1"><path d="M-1.6885,0.8467 T-2.0856,0.0718 -3.3711,-2.5045 -5.1335,-6.112 -7.0247,-9.637 -8.8413,-13.1865 -10.2605,-16.8007 -11.7629,-20.4477 -13.1645,-23.8175 -14.026,-26.3256 -14.7297,-28.9483 -15.2417,-32.0788 -15.0826,-35.2636 -13.9461,-37.5257 -13.1196,-38.1125 A1.8899,1.8899 0 0 1 -11.5728,-34.6636 T-11.7709,-34.1916 -11.9804,-32.3064 -11.8854,-29.4761 -11.5679,-27.1018 -10.862,-24.7793 -9.3933,-21.4478 -7.7844,-17.8192 -6.3655,-14.527 -4.4146,-11.1399 -2.2578,-7.673 -0.1734,-4.1871 1.305,-1.6285 1.6885,-0.8467 A1.8889,1.8889 0 0 1 -1.6885,0.8467 ZM-11.0092,-37.7238 T-10.5291,-37.2732 -9.3373,-35.8804 -7.7044,-33.1609 -6.1135,-29.8219 -4.883,-27.3126 -3.9271,-25.0587 -3.3729,-22.2351 -3.0836,-19.7443 -2.6506,-17.693 -2.1609,-15.5247 -1.8151,-12.9039 -1.5837,-10.0081 -1.4623,-7.5256 -1.3976,-4.9221 -1.3817,-3.4354 A2.0483,2.0483 0 0 1 -5.4783,-3.4246 T-5.48,-4.2346 -5.4556,-6.2281 -5.4094,-8.7059 -5.3967,-11.322 -5.4957,-14.0228 -5.8346,-16.9317 -6.141,-19.4047 -6.3875,-21.6253 -6.8143,-23.855 -7.6546,-25.8593 -8.9986,-28.2965 -11.2636,-31.888 -13.2345,-34.5733 -13.6832,-35.0523 A1.8899,1.8899 0 0 1 -11.0092,-37.7238 Z" stroke-linecap="round" fill="#007782"/></g><g transform="matrix(0.9994, -0.0349, 0.0349, 0.9994, 1083.7961, 1487.4195)" opacity="1"><path d="M-1.8273,0 T-1.7694,-1.3648 -1.436,-4.351 -1.0041,-8.2967 -0.749,-13.4673 -0.5884,-19.0406 -0.4872,-24.4256 -0.4222,-29.7062 -0.1825,-34.7836 0.1482,-39.5046 0.3305,-43.4042 0.6346,-46.5856 0.995,-50.059 1.3849,-53.8867 1.7931,-57.5497 2.0114,-60.8572 2.1323,-64.025 2.1989,-67.3102 2.1784,-70.0814 2.0867,-72.1814 1.9397,-74.5061 1.7639,-76.8327 1.143,-78.7854 -0.0683,-80.7297 -1.1975,-82.7956 -2.3419,-85.5242 -3.9206,-88.5908 -5.7442,-91.6671 -7.368,-94.6119 -8.8241,-97.3949 -10.4116,-101.1389 -12.041,-105.1136 -13.5098,-108.8504 -14.7183,-112.5075 -15.9302,-115.7976 -17.0035,-119.2297 -17.6172,-122.5786 -18.0047,-125.1657 -18.3932,-127.7838 -18.6712,-130.0137 -18.7368,-130.6537 A1.6115,1.6115 0 0 1 -15.5151,-130.7471 T-15.5441,-130.124 -15.5957,-127.9886 -15.5697,-125.464 -15.3209,-122.9895 -14.7697,-119.9293 -13.7096,-116.6204 -12.4448,-113.2686 -11.2541,-109.7584 -9.7508,-106.081 -8.0823,-102.1893 -6.49,-98.6679 -4.9743,-95.9932 -3.2923,-93.2243 -1.2069,-90.1268 1.0579,-86.1517 2.8512,-82.8413 4.1298,-80.9628 4.9613,-78.9139 5.0896,-76.8348 4.8987,-74.491 4.7262,-72.1573 4.5952,-70.051 4.503,-67.2642 4.4382,-63.9377 4.3185,-60.7083 4.0964,-57.297 3.698,-53.652 3.3174,-49.8077 2.9734,-46.3639 2.7024,-43.3033 2.5463,-39.3472 2.2575,-34.6785 2.0776,-29.6932 2.0889,-24.4021 2.0919,-18.9976 2.0724,-13.3747 1.9979,-8.0338 1.8264,-4.151 1.7694,-1.363 1.8273,0 A1.8273,1.8273 0 0 1 -1.8273,0 ZM-17.5331,-132.2596 T-16.7171,-132.4023 -14.7309,-131.9801 -12.7215,-130.7073 -10.2238,-127.734 -7.7315,-124.0553 -6.2129,-121.4636 -4.9369,-119.0041 -3.6933,-116.5118 -2.449,-113.978 -1.3305,-111.5914 0.357,-108.7684 1.5606,-106.8202 1.599,-106.4365 1.5445,-106.0548 1.4003,-105.6972 1.1746,-105.3845 0.8807,-105.135 0.5356,-104.963 0.1594,-104.8786 -0.2261,-104.8867 -0.5984,-104.9868 -0.936,-105.1731 -1.2192,-105.4348 -1.4315,-105.7567 -1.8009,-107.8145 -1.9685,-110.8876 -1.7377,-113.7149 -1.5835,-116.6529 -1.3159,-119.3523 -0.7829,-121.787 -0.1252,-123.7628 0.8769,-125.723 2.2748,-127.6668 4.0112,-130.1851 4.998,-131.779 A1.7296,1.7296 0 0 1 7.5625,-129.4577 T7.0797,-129.0158 6.0849,-127.5559 4.3738,-125.0044 2.4804,-121.8734 1.5913,-119.0776 1.373,-116.5661 1.3523,-113.536 1.2628,-110.4302 1.3445,-108.0254 1.5606,-106.8202 1.599,-106.4365 1.5445,-106.0548 1.4003,-105.6972 1.1746,-105.3845 0.8807,-105.135 0.5356,-104.963 0.1594,-104.8786 -0.2261,-104.8867 -0.5984,-104.9868 -0.936,-105.1731 -1.2192,-105.4348 -1.4315,-105.7567 -2.4444,-107.6244 -3.8644,-110.4173 -4.9191,-112.725 -6.2245,-115.2136 -7.5139,-117.6375 -8.7401,-119.8998 -10.374,-122.3804 -12.7459,-125.5402 -15.1116,-128.396 -16.3883,-129.2979 -16.7188,-129.1412 A1.6115,1.6115 0 0 1 -17.5331,-132.2596 ZM7.5336,-131.8102 T8.228,-131.1059 9.1298,-129.1171 9.3051,-126.2738 9.2555,-123.3025 9.2277,-120.5329 9.2407,-118.0454 9.2701,-115.7132 9.3563,-113.0009 9.4719,-110.9345 9.5075,-110.3787 A1.7794,1.7794 0 0 1 5.9487,-110.3737 T5.9828,-110.9283 6.0888,-112.991 6.1574,-115.695 6.1599,-118.0153 6.1234,-120.4818 6.0051,-123.2095 5.8008,-126.6452 5.3498,-129.0609 5.0269,-129.4265 A1.7296,1.7296 0 0 1 7.5336,-131.8102 ZM7.6654,-112.1545 T8.1471,-112.1619 10.3388,-114.2828 13.3545,-118.03 15.7441,-121.2826 18.0934,-124.2818 20.4181,-126.7633 22.2721,-128.5769 24.6371,-130.0293 26.8513,-130.9216 27.4952,-131.0742 A1.6845,1.6845 0 0 1 28.0517,-127.7514 T26.9581,-127.6373 24.617,-126.8125 22.3704,-124.9865 20.2976,-122.6226 18.1598,-119.6084 15.8985,-116.13 13.4837,-112.6481 11.1386,-109.7872 8.9008,-108.6467 7.7909,-108.5979 A1.7794,1.7794 0 0 1 7.6654,-112.1545 ZM28.9915,-130.5764 T29.3604,-130.2272 30.1207,-128.949 30.1863,-126.2917 29.0018,-123.2835 27.3088,-120.6777 25.3239,-118.1049 23.4797,-115.6074 21.7348,-112.775 19.556,-109.2238 17.1767,-105.521 15.1111,-102.1756 13.42,-99.0288 12.1392,-96.3486 11.293,-93.6273 10.4145,-90.7263 9.7945,-88.3539 9.0421,-86.2779 8.0644,-84.3122 7.2197,-82.4145 6.3182,-79.5768 5.8521,-77.6996 A1.6203,1.6203 0 0 1 2.7279,-78.5604 T3.0333,-79.6496 3.6676,-81.766 4.4758,-83.7223 5.9802,-86.2984 7.3018,-89.0802 8.0417,-91.4565 8.9384,-94.4004 9.9218,-97.3867 11.2846,-100.1629 13.0048,-103.4419 15.0413,-106.8677 17.3145,-110.5688 19.3746,-114.1504 21.1115,-117.2397 22.7838,-119.8759 24.3873,-122.4232 25.6997,-124.9127 26.6916,-126.7615 26.8294,-127.9254 26.5554,-128.2491 A1.6845,1.6845 0 0 1 28.9915,-130.5764 Z" stroke-linecap="round" fill="#007782"/></g><g transform="matrix(0.9994, -0.0349, 0.0349, 0.9994, 1092.325, 1436.434)" opacity="1"><path d="M1.606,1.208 T1.007,1.9816 -0.4386,3.5147 -2.51,5.6923 -4.6422,8.5403 -6.1543,11.3115 -6.7589,12.6529 A1.9934,1.9934 0 0 1 -10.601,11.5888 T-9.6681,9.7434 -7.6664,6.2262 -5.9393,3.794 -4.0155,1.696 -2.178,-0.4248 -1.606,-1.208 A2.0096,2.0096 0 0 1 1.606,1.208 ZM-9.7124,10.4157 T-8.8781,9.9212 -7.125,8.463 -5.3282,6.099 -3.5023,3.2654 -1.6715,0.1486 0.1086,-3.2642 1.7015,-6.0514 3.2175,-7.9547 5.802,-9.9323 8.561,-11.2958 10.9681,-11.736 13.2432,-11.5817 14.6245,-10.3662 15.2632,-8.5216 14.4851,-5.9275 12.7523,-3.0157 11.2771,-0.2806 10.0705,2.7058 8.989,5.8994 7.7733,9.266 6.5056,12.4881 5.6574,15.2996 5.0178,18.0058 4.2583,21.0778 3.6928,23.8825 3.2279,26.2484 2.5784,28.6115 1.8372,30.6031 0.636,33.0372 -1.2568,35.9549 -3.0281,38.2877 -4.4719,40.4309 -5.5844,42.3025 -5.9414,43.0008 A2.0163,2.0163 0 0 1 -9.5186,41.1392 T-8.821,39.8469 -7.0917,37.2931 -4.9254,34.8576 -2.9728,32.678 -1.3123,30.2252 -0.089,27.7963 0.6158,25.6615 1.201,23.3648 1.8437,20.4826 2.582,17.4216 3.2636,14.6074 4.1283,11.5905 5.2823,8.4204 6.3566,5.0772 7.3242,1.6941 8.4402,-1.6525 9.7885,-4.804 11.4489,-7.3495 11.2854,-8.3193 8.7528,-7.9826 6,-6.6091 4.0579,-4.6401 2.592,-2.035 0.907,1.5673 -0.7566,4.8713 -2.4702,8.0853 -4.2955,11.0852 -6.431,13.0787 -7.6475,13.826 A1.9934,1.9934 0 0 1 -9.7124,10.4157 Z" stroke-linecap="round" fill="#007782"/></g><g transform="matrix(0.9994, -0.0349, 0.0349, 0.9994, 1191.9723, 1485.3601)" opacity="1"><path d="M-1.8239,-0.261 T-1.5668,-1.6167 -0.9762,-4.202 -0.4825,-6.5307 0.032,-9.4605 0.5855,-13.3928 0.9055,-17.8206 1.1001,-21.8133 1.219,-25.1657 1.2591,-28.1645 1.2807,-30.9713 1.5235,-34.1344 1.8539,-37.9947 2.235,-42.0441 2.6216,-45.2577 3.2313,-48.6126 4.1753,-52.6218 5.0705,-57.0738 5.7501,-61.7973 6.1212,-65.9114 6.3266,-69.519 6.4398,-72.8466 6.4603,-75.6395 6.3371,-78.4223 6.1882,-81.4152 4.7068,-84.9425 2.4602,-88.5771 0.6187,-92.3744 -1.5296,-96.7707 -3.8653,-101.7198 -5.9431,-106.8265 -7.4666,-111.1928 -8.6793,-114.9354 -9.73,-117.9086 -10.8842,-120.8789 -12.2735,-124.25 -13.4615,-127.3094 -14.2077,-129.6218 -14.8161,-131.8974 -15.212,-133.7768 -15.2948,-134.3171 A1.647,1.647 0 0 1 -12.0093,-134.5529 T-12.0084,-133.5368 -11.7989,-130.9646 -11.2198,-128.1471 -10.0817,-125.1617 -8.6414,-121.7443 -7.4733,-118.7086 -6.4159,-115.679 -5.1895,-111.9954 -3.6679,-107.7585 -1.5995,-102.8217 0.7979,-97.9401 3.0363,-93.6192 4.9472,-90.0227 6.625,-87.3249 8.376,-84.6792 9.2518,-81.6041 9.056,-78.3869 8.8538,-75.5892 8.7531,-72.7713 8.6443,-69.3903 8.4432,-65.7087 8.07,-61.4705 7.3866,-56.6098 6.5009,-52.0809 5.6134,-48.2053 5.0136,-44.968 4.615,-41.8202 4.273,-37.7867 3.9942,-33.9773 3.8278,-30.9503 3.8065,-28.1321 3.7682,-25.1109 3.7435,-21.7286 3.6751,-17.6698 3.5135,-13.0558 3.1851,-9.0002 2.7997,-5.872 2.3603,-3.524 1.9571,-1.1111 1.8239,0.261 A1.8425,1.8425 0 0 1 -1.8239,-0.261 ZM-12.8653,-135.8819 T-12.2812,-135.6076 -10.5514,-134.5014 -8.4965,-132.7697 -6.52,-130.0932 -4.5549,-126.8327 -2.7842,-123.9495 -1.3468,-121.3134 -0.1559,-119.1628 0.9046,-116.7209 1.7357,-114.1298 2.5487,-111.867 3.9832,-108.3462 5.0287,-105.8311 5.0351,-105.4421 4.9483,-105.0628 4.7732,-104.7153 4.5201,-104.4199 4.2036,-104.1936 3.8421,-104.0496 3.4567,-103.9963 3.0697,-104.0368 2.7037,-104.1688 2.3799,-104.3845 2.1171,-104.6714 1.9306,-105.0129 1.8656,-107.3496 2.4912,-111.3773 3.6744,-115.0951 4.7528,-118.7239 5.7328,-124.3157 6.4682,-130.6329 7.0886,-134.9617 7.8003,-138.0283 8.8862,-141.0174 10.0697,-143.3644 10.5273,-143.9698 A1.6108,1.6108 0 0 1 12.9736,-141.8736 T12.4924,-141.3834 11.3234,-139.6851 10.2461,-137.4029 9.5502,-134.6114 9.0144,-130.3577 8.3391,-123.8184 7.4508,-117.9946 6.5375,-114.2754 5.5032,-110.2479 4.9708,-107.0718 5.0287,-105.8311 5.0351,-105.4421 4.9483,-105.0628 4.7732,-104.7153 4.5201,-104.4199 4.2036,-104.1936 3.8421,-104.0496 3.4567,-103.9963 3.0697,-104.0368 2.7037,-104.1688 2.3799,-104.3845 2.1171,-104.6714 1.9306,-105.0129 1.0418,-107.4627 -0.1774,-110.9231 -0.9672,-113.2896 -1.6417,-115.6014 -2.6232,-117.857 -3.7419,-120.0279 -5.1043,-122.4458 -7.0306,-125.2516 -8.9845,-128.128 -10.6186,-130.2646 -12.316,-131.6362 -13.8919,-132.6474 -14.4388,-132.9881 A1.647,1.647 0 0 1 -12.8653,-135.8819 ZM13.1165,-143.7752 T13.6439,-143.0291 14.3291,-141.2792 14.4479,-138.6157 14.3784,-135.4945 14.5193,-132.7499 14.7981,-130.0801 14.9294,-127.1509 15.0084,-124.3854 15.0934,-121.9067 15.1648,-119.5764 15.2827,-116.7077 15.4267,-113.368 15.5409,-110.8621 15.5875,-109.9021 A1.8475,1.8475 0 0 1 11.8925,-109.8979 T11.937,-110.8581 12.0439,-113.3611 12.1658,-116.6888 12.2465,-119.5412 12.2608,-121.8464 12.2412,-124.2904 12.1287,-126.9732 11.9094,-129.7402 11.5462,-132.506 11.2263,-135.4261 11.0325,-138.9469 10.6496,-141.5456 10.3844,-142.0682 A1.6108,1.6108 0 0 1 13.1165,-143.7752 ZM12.0028,-110.5287 T12.412,-111.6566 13.7595,-114.1262 15.7963,-116.931 18.2888,-120.1636 21.448,-123.8954 24.5364,-127.4639 26.5335,-130.1235 27.7517,-132.1566 28.8044,-133.9458 30.2726,-135.671 31.578,-137.1378 31.9231,-137.6888 A1.603,1.603 0 0 1 34.482,-135.7573 T33.8818,-135.0559 31.9852,-133.0318 30.0554,-130.7131 28.6533,-128.5822 26.5671,-125.7614 23.6082,-122.1453 20.6889,-118.4311 18.4674,-115.1686 16.8671,-112.4963 15.8438,-110.2869 15.4772,-109.2713 A1.8475,1.8475 0 0 1 12.0028,-110.5287 ZM34.5823,-137.5391 T34.8823,-137.1046 35.448,-135.5587 35.3295,-132.7302 34.5186,-129.4593 33.4533,-125.6819 32.262,-121.6595 31.2071,-118.4605 30.0385,-115.1551 28.5903,-111.5664 26.9973,-108.2075 25.3384,-105.0083 24.08,-102.1784 22.7687,-99.5551 21.2748,-97.0838 20.1695,-94.8636 19.2015,-92.8168 18.3156,-90.9039 17.4749,-88.933 16.1428,-86.4451 14.3393,-83.6676 12.3199,-81.1418 10.4765,-78.9769 8.8298,-76.8203 7.889,-75.631 A1.2826,1.2826 0 0 1 5.851,-77.189 T6.7518,-78.4088 8.4771,-80.6634 10.2519,-82.7373 12.0071,-85.1142 13.5499,-87.7484 14.7714,-90.1751 15.7561,-92.2085 16.7914,-94.0624 17.9118,-96.0541 19.2011,-98.3696 20.6625,-100.6383 21.9119,-103.129 23.2066,-106.0979 24.7929,-109.2367 26.2835,-112.4801 27.6225,-115.9859 28.707,-119.2552 29.6418,-122.3855 30.6643,-126.3791 31.5085,-130.1403 32.0335,-133.3642 32.039,-135.4686 31.8228,-135.9069 A1.603,1.603 0 0 1 34.5823,-137.5391 Z" stroke-linecap="round" fill="#007782"/></g><g transform="matrix(0.9994, -0.0349, 0.0349, 0.9994, 1192.4708, 1475.0333)" opacity="1"><path d="M-1.7888,0.2239 T-1.8982,-1.3405 -2.5923,-4.571 -3.7263,-8.4882 -4.9479,-13.7002 -6.1664,-18.6322 -7.0264,-22.5453 -7.6877,-26.0607 -8.423,-29.4939 -9.3831,-32.8664 -10.4914,-35.6131 -11.3832,-37.7432 -12.6087,-39.2825 -13.8081,-39.9997 -14.1376,-40.0736 A1.6466,1.6466 0 0 1 -12.8249,-43.0939 T-11.6309,-42.2288 -9.6007,-39.5769 -8.2503,-36.5047 -7.0995,-33.5401 -6.0587,-30.02 -5.2663,-26.5419 -4.5596,-23.1116 -3.6295,-19.3013 -2.2849,-14.3713 -0.9574,-9.3788 0.432,-5.3152 1.5079,-1.7776 1.7888,-0.2239 A1.8028,1.8028 0 0 1 -1.7888,0.2239 ZM-12.6069,-40.1885 T-13.0328,-39.8762 -13.7978,-38.616 -14.3035,-35.5521 -14.0406,-31.5865 -13.2797,-28.8108 -12.4393,-26.8477 -11.1034,-24.2139 -9.7564,-21.2516 -8.6349,-18.4332 -7.6327,-15.7126 -6.6912,-13.5529 -5.6051,-11.7048 -4.5544,-9.8393 -3.3537,-7.1897 -2.2741,-4.0154 -1.7384,-1.495 -1.5206,1.0606 -1.4541,2.5303 A1.9765,1.9765 0 0 1 -5.4059,2.6297 T-5.4164,1.8462 -5.4407,-0.4548 -5.6398,-3.1564 -6.3252,-5.9117 -7.2732,-8.3988 -8.2067,-10.2716 -9.3244,-12.418 -10.2741,-14.7219 -11.3054,-17.3158 -12.4863,-19.9485 -13.9339,-22.6874 -15.571,-25.4983 -16.601,-27.7953 -17.2896,-30.0438 -17.7834,-32.3687 -17.9073,-35.8982 -17.5877,-39.3859 -16.3069,-41.4881 -14.8233,-42.7314 -14.3556,-42.979 A1.6466,1.6466 0 0 1 -12.6069,-40.1885 Z" stroke-linecap="round" fill="#007782"/></g><g transform="matrix(0.9994, -0.0349, 0.0349, 0.9994, 1308.9389, 1489.0075)" opacity="1"><path d="M-1.4278,-1.074 T-0.8476,-1.8561 0.6655,-3.9305 2.0579,-6.7327 2.8108,-10.434 3.2824,-15.5933 3.1781,-21.8713 2.359,-29.7512 1.5282,-39.2007 1.0772,-47.9055 0.8363,-56.1649 0.5134,-65.7248 -0.0489,-74.6113 -0.9288,-80.9505 -1.9903,-85.9533 -2.7734,-89.9097 -3.2676,-92.4757 -3.7311,-94.9296 -3.9727,-96.2346 -3.967,-96.1195 A1.9012,1.9012 0 0 1 -6.1257,-99.2497 T-4.6911,-99.751 -2.0803,-99.5211 -0.9344,-97.6391 -0.957,-95.1859 -0.8634,-92.8698 -0.5023,-90.3542 0.2805,-86.4351 1.3716,-81.2973 2.2893,-74.7695 2.8741,-65.8051 3.2222,-56.2416 3.4953,-48.0344 3.9856,-39.4277 4.8784,-30.0184 5.794,-21.9248 6.0155,-15.3675 5.6543,-9.8647 4.8823,-5.4619 3.4825,-1.985 2.0186,0.2993 1.4278,1.074 A1.7866,1.7866 0 0 1 -1.4278,-1.074 ZM-6.1508,-96.1371 T-6.7695,-96.5593 -8.361,-97.9043 -10.2797,-100.2516 -12.082,-103.2185 -13.9735,-106.7769 -15.9624,-110.8897 -18.0034,-115.2779 -20.0569,-119.3854 -22.1351,-123.1755 -23.9026,-127.1197 -25.0748,-130.4737 -26.0873,-133.2158 -26.9127,-135.7565 -27.3402,-138.5892 -26.2785,-141.0033 -24.0475,-140.9613 -22.1665,-139.401 -20.2996,-137.1155 -18.4868,-134.1438 -16.9422,-130.9385 -15.3705,-127.6802 -13.5964,-124.6148 -11.5615,-122.0742 -9.6251,-120.0966 -7.5264,-118.2189 -5.7471,-116.817 -5.1736,-116.2837 A1.648,1.648 0 0 1 -7.6318,-114.088 T-8.474,-115.0991 -10.0017,-116.7702 -11.4394,-118.373 -13.4462,-120.4924 -15.7809,-123.3095 -17.7277,-126.489 -19.4041,-129.671 -20.9563,-132.5489 -22.6699,-135.0146 -24.7833,-137.4667 -25.3232,-138.1101 -24.5197,-136.4594 -23.8428,-134.0435 -22.8192,-131.275 -21.6926,-128.104 -19.9655,-124.3803 -17.789,-120.5542 -15.6173,-116.4253 -13.4869,-112.1481 -11.4111,-108.2474 -9.4254,-104.9862 -7.6934,-102.5964 -5.9994,-100.8448 -4.5412,-99.6792 -3.9418,-99.2321 A1.9012,1.9012 0 0 1 -6.1508,-96.1371 ZM-8.0434,-115.3409 T-7.976,-116.2832 -7.9843,-118.7672 -8.2771,-122.1666 -8.6227,-125.4799 -8.8298,-128.3282 -8.9834,-130.8678 -9.0973,-133.2306 -8.7708,-136.5017 -7.7406,-139.557 -5.8252,-141.5946 -4.5745,-142.6319 A1.7887,1.7887 0 0 1 -2.8875,-139.4771 T-3.2183,-139.3662 -4.5037,-138.2403 -5.8321,-135.8658 -6.196,-133.3172 -6.1712,-131.0075 -6.071,-128.5569 -5.8135,-125.8328 -5.3082,-122.5079 -4.7576,-118.7472 -4.6512,-115.9739 -4.762,-115.0308 A1.648,1.648 0 0 1 -8.0434,-115.3409 ZM-2.0162,-141.5633 T-1.5721,-140.0629 -1.1053,-137.1076 -1.0443,-134.4909 -1.0317,-131.9047 -1.0398,-129.3177 -1.0548,-126.739 -1.1026,-123.9652 -1.0958,-121.4782 -1.0433,-119.3416 -0.9391,-116.7951 -0.6249,-114.4623 -0.3846,-113.6689 A1.8415,1.8415 0 0 1 -3.9953,-112.9424 T-4.1458,-114.0917 -4.2244,-116.786 -4.1244,-119.3371 -4.0782,-121.4713 -4.0831,-123.9537 -4.1524,-126.7142 -4.2066,-129.2742 -4.2866,-131.8164 -4.4056,-134.334 -4.5855,-136.7827 -5.0822,-139.3238 -5.4459,-140.5457 A1.7887,1.7887 0 0 1 -2.0162,-141.5633 ZM-3.8278,-114.1474 T-3.5149,-114.8458 -2.7659,-117.8736 -1.9096,-121.8418 -1.2595,-125.0695 -0.7111,-128.0363 -0.0376,-130.582 0.9632,-133.1721 2.369,-135.831 3.9458,-138.1516 5.7051,-139.9696 7.5014,-141.2554 9.8625,-142.5183 11.3698,-143.2295 A1.7137,1.7137 0 0 1 11.7405,-139.8222 T10.8452,-139.4795 8.4526,-138.3185 6.2172,-136.5546 4.8211,-134.5587 3.6423,-132.1727 2.7611,-129.8052 2.1244,-127.5533 1.7032,-124.5859 1.2925,-121.2277 0.8566,-118.0895 0.4745,-115.2159 -0.1448,-113.1668 -0.552,-112.464 A1.8415,1.8415 0 0 1 -3.8278,-114.1474 ZM13.1452,-142.165 T13.4719,-141.4227 14.0183,-139.5083 14.3248,-137.1338 14.0211,-133.43 13.1847,-129.5585 12.2952,-126.8575 11.1708,-124.1357 9.4773,-121.3602 7.7917,-118.7607 6.5596,-116.2998 5.2655,-113.8658 3.8671,-111.0825 2.6413,-108.2843 1.4126,-106.3091 0.5657,-104.3656 0.3478,-102.0962 -0.3739,-99.6994 -1.4182,-97.9226 -1.7781,-97.4444 A2.0994,2.0994 0 0 1 -5.0819,-100.0356 T-4.7032,-100.4992 -3.9488,-101.8214 -3.3743,-103.847 -2.4427,-106.5346 -1.0333,-108.8992 0.4952,-111.0896 1.8191,-113.2741 2.9618,-115.1141 4.2252,-117.4504 5.5402,-120.1589 7.0891,-122.745 8.4593,-125.1848 9.3794,-127.7324 10.0978,-130.4002 10.6781,-133.7007 10.7156,-137.5165 10.2397,-140.1332 9.9651,-140.8867 A1.7137,1.7137 0 0 1 13.1452,-142.165 Z" stroke-linecap="round" fill="#007782"/></g><g transform="matrix(0.9994, -0.0349, 0.0349, 0.9994, 1312.66, 1472.5545)" opacity="1"><path d="M-1.7371,-0.6965 T-1.3376,-1.6656 -0.4761,-4.0167 0.6705,-7.3968 1.9177,-11.773 2.9955,-17.0102 4.5938,-23.8445 6.6634,-30.9534 8.612,-36.0636 10.0553,-39.2663 11.3423,-41.4241 12.1478,-42.3557 A1.4636,1.4636 0 0 1 14.1022,-40.1764 T13.4609,-39.8104 12.302,-38.2093 10.9175,-35.1586 9.1175,-30.2478 7.1822,-23.2875 5.727,-16.4855 4.779,-11.023 3.7463,-6.5116 2.8541,-2.8926 2.1183,-0.2816 1.7371,0.6965 A1.8715,1.8715 0 0 1 -1.7371,-0.6965 ZM14.473,-41.8364 T14.85,-41.0586 15.4799,-39.1059 15.8666,-36.9303 16.0634,-34.7843 16.1692,-32.6082 15.5259,-29.7888 14.3074,-26.7629 13.0528,-24.3681 12.0262,-22.0615 11.3083,-19.5746 10.4545,-16.7589 9.5947,-14.0235 9.0037,-11.7846 8.5182,-9.8968 7.5673,-7.0997 6.3917,-3.6597 5.4863,-1.1257 4.7036,0.9815 3.7871,3.7924 3.1154,6.542 2.588,8.6657 2.1225,10.989 2.0132,12.2497 A2.0262,2.0262 0 0 1 -2.0132,11.7903 T-1.7985,10.2119 -1.178,7.7779 -0.4112,5.575 0.5183,2.6031 1.4747,-0.1836 2.2531,-2.4082 3.3157,-5.0342 4.4186,-7.4539 5.4289,-9.8685 6.2937,-12.5441 6.9971,-14.8252 7.7927,-17.5156 8.5406,-20.355 9.3344,-23.2281 10.3693,-25.7416 11.4603,-27.8925 12.3923,-30.3313 12.828,-32.5236 12.7651,-34.5292 12.5404,-37.3352 12.0695,-39.8913 11.7771,-40.6957 A1.4636,1.4636 0 0 1 14.473,-41.8364 Z" stroke-linecap="round" fill="#007782"/></g><g transform="matrix(0.9994, -0.0349, 0.0349, 0.9994, 1403.2962, 1484.8534)" opacity="1"><path d="M-1.826,-0.3661 T-1.6285,-1.3386 -1.3195,-3.3328 -1.0685,-6.5058 -0.8375,-10.5856 -0.6811,-15.5187 -0.3718,-20.8089 0.0099,-25.4478 0.4268,-30.5 1.253,-36.8274 2.0956,-43.7487 2.5554,-50.0077 2.8114,-55.5671 2.9543,-60.1625 3.0343,-64.4231 3.0794,-68.502 3.0836,-71.7049 3.028,-74.2322 2.9369,-76.3925 2.8451,-78.3525 2.7281,-80.9784 2.5904,-84.1729 2.1785,-86.8811 1.3025,-89.0964 0.1189,-91.2902 -1.2526,-93.4448 -2.8997,-95.57 -4.815,-98.4513 -7.0675,-102.4488 -9.4179,-106.7351 -11.3065,-110.699 -12.9183,-114.4301 -14.2042,-118.2973 -14.9635,-121.6495 -15.5754,-124.5321 -15.9756,-127.1911 -15.6351,-129.3173 -14.744,-131.5874 -13.7128,-133.3238 -13.1645,-133.8615 A1.8473,1.8473 0 0 1 -10.8967,-130.9448 T-11.072,-130.9199 -11.7768,-129.8922 -12.6229,-127.673 -12.8568,-124.9321 -12.5622,-122.1576 -11.9301,-119.0664 -10.6681,-115.4154 -9.044,-111.796 -7.1515,-108.0101 -4.7227,-103.8154 -2.5043,-100.1287 -0.5129,-97.5083 1.428,-95.2689 3.0612,-92.997 4.5206,-90.6507 5.625,-87.5874 5.9884,-84.1721 5.8481,-80.9758 5.7264,-78.3474 5.6276,-76.3846 5.5236,-74.2209 5.4443,-71.6894 5.4053,-68.4799 5.3712,-64.3826 5.3062,-60.0962 5.1834,-55.4654 4.9531,-49.8406 4.5226,-43.4657 3.7346,-36.5282 2.9965,-30.3193 2.6846,-25.2649 2.4469,-20.6811 2.3365,-15.4996 2.4393,-10.5331 2.4555,-6.2945 2.3133,-2.7959 2.0188,-0.6085 1.826,0.3661 A1.8623,1.8623 0 0 1 -1.826,-0.3661 ZM-10.9407,-133.8946 T-10.3231,-133.4632 -8.9658,-131.9646 -7.5605,-128.8832 -6.2201,-125.1118 -4.9694,-121.5435 -3.5727,-118.3044 -2.0628,-115.8824 -1.538,-114.1447 -1.7339,-115.2268 -1.8562,-118.654 -2.1769,-122.1287 -2.5327,-125.8664 -2.7418,-129.1306 -2.8792,-131.8887 -2.9942,-134.3796 -2.9067,-136.4978 -2.3553,-138.7701 -0.4518,-141.0978 2.2641,-141.7915 4.3745,-140.4408 5.845,-138.0335 6.7139,-135.2395 7.2811,-132.3898 7.8845,-129.3488 8.4055,-126.2512 8.7375,-123.5252 8.9544,-121.0564 9.0949,-118.724 9.2743,-116.248 9.3894,-114.8451 A1.6841,1.6841 0 0 1 6.0216,-114.7896 T6.0789,-116.1715 6.1322,-118.6013 6.0792,-120.8441 5.9418,-123.1877 5.6249,-125.7083 4.9579,-128.6439 4.1006,-131.6555 3.4225,-134.1789 1.951,-136.503 0.2358,-136.6524 -0.2798,-134.4439 -0.2569,-132.0093 -0.1418,-129.3139 0.1116,-126.1659 0.6025,-122.4422 1.1175,-118.6706 1.2431,-115.4165 0.6811,-112.4429 -1.1807,-111.2875 -3.1222,-112.504 -4.3933,-114.4054 -6.1048,-117.126 -7.7561,-120.4529 -9.2359,-123.9126 -11.0393,-127.8735 -12.5623,-130.4838 -13.1205,-130.9116 A1.8473,1.8473 0 0 1 -10.9407,-133.8946 ZM8.2783,-116.4011 T8.6835,-116.2909 9.0888,-116.1807 A1.7526,1.7526 0 0 1 7.8966,-112.8845 T7.5147,-113.059 7.1327,-113.2336 A1.6841,1.6841 0 0 1 8.2783,-116.4011 ZM6.9211,-115.3083 T7.3804,-116.3422 8.2007,-118.3335 9.0574,-121.2462 9.9397,-124.2557 10.9987,-126.8087 12.2181,-129.5364 13.2741,-131.7334 14.6495,-133.5172 15.5162,-134.3325 A1.7533,1.7533 0 0 1 17.6278,-131.533 T16.6447,-130.5364 15.1811,-128.3353 14.1975,-125.604 13.3584,-123.1563 12.7497,-121.191 12.2371,-119.0906 11.6267,-116.9993 10.6601,-114.8605 10.0643,-113.7569 A1.7526,1.7526 0 0 1 6.9211,-115.3083 ZM18.1744,-133.6444 T18.528,-132.903 19.125,-130.9709 19.4637,-128.5714 19.5932,-126.124 19.6332,-123.6256 19.6332,-121.0956 19.6929,-118.0628 19.7513,-114.1788 19.7174,-110.7892 19.6964,-108.4326 19.5118,-106.354 19.0116,-104.4476 18.2544,-102.2117 17.0519,-99.5372 15.8479,-96.9645 14.9419,-94.6963 13.7163,-92.3836 12.4471,-90.0827 11.2495,-87.211 10.0257,-84.6098 9.4986,-83.8415 A2.1142,2.1142 0 0 1 5.9614,-86.1585 T6.8066,-87.7266 8.1325,-90.6524 9.3955,-93.2182 10.7648,-95.375 11.8532,-97.3743 12.6969,-99.3729 13.7521,-101.4791 14.9176,-103.6957 15.863,-106.0605 16.3607,-108.4428 16.3372,-110.7863 16.2937,-114.1673 16.3169,-118.0324 16.3173,-121.0348 16.2263,-123.5082 16.0996,-125.8915 15.8059,-128.8884 15.2778,-131.4725 14.9697,-132.2211 A1.7533,1.7533 0 0 1 18.1744,-133.6444 Z" stroke-linecap="round" fill="#007782"/></g><g transform="matrix(0.9994, -0.0349, 0.0349, 0.9994, 1404.3232, 1465.0579)" opacity="1"><path d="M-1.8028,0 T-1.7176,-1.5588 -1.7603,-5.2663 -2.3228,-9.5087 -3.3647,-13.52 -4.4942,-16.8871 -5.8621,-20.0617 -7.3756,-23.1501 -8.776,-25.5692 -10.2702,-27.3187 -12.1501,-28.8192 -13.6394,-29.7059 -14.0103,-29.7859 A1.6361,1.6361 0 0 1 -12.8259,-32.8363 T-12.2146,-32.5349 -10.3679,-31.0631 -8.2838,-28.9596 -6.648,-26.8183 -5.1678,-24.257 -3.5427,-21.0768 -2.0225,-17.7677 -0.7225,-14.2574 0.5483,-9.9557 1.37,-5.4007 1.7176,-1.5593 1.8028,0 A1.8028,1.8028 0 0 1 -1.8028,0 ZM-11.9008,-30.699 T-12.2086,-29.8455 -11.903,-27.4475 -10.7586,-24.9335 -9.5863,-23.0827 -7.861,-20.9834 -5.7849,-18.886 -3.6551,-17.3177 -1.4528,-15.934 0.7822,-14.5477 1.9526,-13.8565 A2.1369,2.1369 0 0 1 -0.2326,-10.1835 T-1.6351,-11.023 -3.7083,-12.5503 -5.4147,-13.9196 -7.3265,-15.5175 -9.3376,-17.5547 -11.0625,-19.4369 -12.4309,-21.2367 -13.8575,-23.3911 -14.8958,-25.4785 -15.6323,-27.9841 -15.457,-30.7207 -14.9354,-31.9232 A1.6361,1.6361 0 0 1 -11.9008,-30.699 Z" stroke-linecap="round" fill="#007782"/></g><g transform="matrix(0.9994, -0.0349, 0.0349, 0.9994, 1502.0936, 1484.8398)" opacity="1"><path d="M-1.904,0 T-1.8735,-1.1687 -1.8194,-4.4045 -1.7114,-8.5074 -2.1395,-14.0738 -2.93,-20.6134 -3.3497,-25.8479 -3.5623,-29.6811 -3.6674,-33.1556 -3.7365,-36.4234 -3.8,-39.1778 -3.8774,-41.6587 -4.1349,-43.8768 -4.4696,-46.2596 -4.6874,-48.638 -4.825,-50.9116 -4.8904,-53.3321 -4.8813,-56.0175 -4.8176,-59.2361 -4.7561,-62.5516 -4.7238,-65.5304 -4.7535,-68.1308 -4.8314,-70.3332 -4.6898,-72.6318 -4.4373,-74.8715 -4.3439,-77.6451 -4.3559,-80.8822 -4.2026,-84.0367 -3.9053,-86.9298 -3.7769,-89.5075 -3.7598,-92.3455 -4.4428,-94.8262 -6.1786,-96.9006 -7.7226,-99.1527 -8.757,-101.4577 -9.8763,-103.6404 -11.2491,-106.0903 -12.9398,-109.4872 -14.4844,-113.4291 -15.8709,-117.5108 -17.0082,-121.3284 -17.6921,-124.0316 -18.1309,-126.335 -18.375,-128.8173 -18.5261,-131.1389 -18.6191,-133.4132 -18.2341,-135.7612 -17.1942,-138.1808 -15.1796,-139.7884 -12.6744,-139.353 -10.7146,-137.2591 -9.2472,-134.6116 -8.2304,-132.1285 -7.3379,-130.1645 -6.4325,-128.3054 -5.5385,-126.0116 -4.6966,-123.5875 -3.7195,-120.7743 -2.5617,-118.2253 -1.839,-117.2688 -1.6469,-117.237 A1.8818,1.8818 0 0 1 -3.6748,-114.0666 T-4.7393,-115.2553 -6.241,-118.0697 -7.0534,-120.6102 -7.6919,-122.5154 -8.8099,-125.6019 -10.3076,-128.8264 -11.2315,-130.8939 -12.1111,-132.9339 -13.5392,-135.5025 -14.9836,-135.7557 -15.5835,-133.4274 -15.5623,-131.2725 -15.5044,-129.0492 -15.3656,-126.7749 -15.1033,-124.6484 -14.5035,-122.0993 -13.2903,-118.4435 -11.8024,-114.5504 -10.2194,-111.0204 -8.319,-107.8665 -6.69,-105.4601 -5.133,-102.5701 -3.2363,-99.7863 -1.4999,-98.0615 -0.2065,-96.1176 0.2809,-93.7192 0.218,-90.8442 0.0373,-87.8444 -0.4234,-84.9824 -0.8151,-82.1108 -1.0001,-79.0996 -1.206,-76.502 -1.4394,-74.4668 -1.7827,-72.3834 -2.0254,-70.3315 -2.1007,-68.1332 -2.1256,-65.5343 -2.0844,-62.5581 -2.0067,-59.2497 -1.9133,-56.0489 -1.8498,-53.3958 -1.8158,-51.0359 -1.7712,-48.8444 -1.6554,-46.6122 -1.3793,-44.1182 -1.2248,-41.6864 -1.2541,-39.2183 -1.2297,-36.4842 -1.1378,-33.2676 -0.948,-29.8634 -0.6205,-26.1041 -0.0515,-21.0017 0.9685,-14.3147 1.7114,-8.5106 1.8194,-4.4045 1.8735,-1.1687 1.904,0 A1.904,1.904 0 0 1 -1.904,0 ZM-3.1588,-117.4665 T-2.9501,-117.5425 -2.7414,-117.6186 A1.918,1.918 0 0 1 -1.7263,-113.9194 T-1.9446,-113.8783 -2.1629,-113.8372 A1.8818,1.8818 0 0 1 -3.1588,-117.4665 ZM-4.1317,-116.0458 T-3.9881,-117.2206 -3.7072,-119.9507 -3.4703,-123.1577 -3.2995,-126.4908 -3.1776,-129.8723 -2.9201,-132.99 -2.3974,-135.767 -1.7306,-138.1485 -1.0091,-140.098 -0.0422,-142.3315 1.4544,-144.4882 2.3548,-145.3388 A1.8353,1.8353 0 0 1 4.4579,-142.3304 T3.9939,-142.2273 2.8602,-140.9469 1.4058,-138.1315 0.3301,-135.2429 -0.1507,-132.7757 -0.301,-129.8563 -0.2111,-126.4633 -0.0991,-123.1013 0.0302,-119.7585 -0.119,-116.7898 -0.336,-115.4922 A1.918,1.918 0 0 1 -4.1317,-116.0458 ZM4.379,-145.391 T5.2176,-144.8519 6.7755,-143.1445 8.1163,-140.2564 8.903,-137.0582 9.1613,-134.441 9.2908,-132.0792 9.3617,-129.8049 9.4688,-127.1739 9.5985,-124.4207 9.8632,-122.73 10.071,-122.2128 A2.0174,2.0174 0 0 1 6.166,-121.1976 T5.9791,-122.1984 5.8347,-124.3772 5.9014,-127.1063 5.9025,-129.6802 5.8105,-131.8481 5.6419,-134.0467 5.3545,-136.2145 4.8417,-138.2583 4.2086,-140.2895 3.1671,-141.8348 2.4337,-142.2783 A1.8353,1.8353 0 0 1 4.379,-145.391 ZM7.1526,-123.4764 T7.8495,-123.8633 9.5266,-125.7885 10.8453,-128.5548 11.6522,-131.389 12.3742,-134.3832 12.7828,-137.2996 13.1824,-140.0117 13.9633,-142.4865 15.2526,-144.4229 17.5554,-145.4385 20.1807,-145.3308 22.026,-143.555 23.1288,-141.1801 23.6406,-139.1049 23.9156,-137.164 24.0445,-135.1047 23.8866,-132.8106 23.1201,-130.46 22.0872,-128.4019 20.9285,-126.4123 19.1641,-124.0913 17.4258,-121.9062 16.4555,-119.9807 15.4861,-117.5823 14.5247,-115.0686 13.8689,-112.9139 13.1105,-110.8427 12.5556,-108.8934 11.8209,-106.7388 10.9398,-103.9209 10.2554,-101.1023 9.5586,-98.4065 8.474,-95.5684 7.2334,-93.4023 6.1168,-91.6831 4.5766,-90.1701 3.0308,-88.6698 1.6946,-87.1447 0.5256,-85.9113 0.0509,-85.3255 A2.2541,2.2541 0 0 1 -3.4909,-88.1145 T-3.0328,-88.7133 -1.7889,-90.0307 -0.2361,-91.4842 1.6973,-93.0233 3.4208,-94.7512 4.8206,-96.9984 5.985,-99.5265 6.7938,-101.8311 7.4721,-103.9079 8.4621,-106.7358 9.5311,-109.8285 10.2117,-111.978 11.001,-113.8468 11.7497,-116.0474 12.6453,-118.6582 13.6467,-121.363 14.8556,-123.7872 16.3928,-126.0014 17.7756,-128.1622 18.8143,-130.0992 19.8131,-132.4263 20.2332,-135.6748 19.7945,-139.0386 18.3567,-141.4135 16.7378,-141.3618 15.9677,-139.5476 15.6193,-136.9818 15.3648,-133.7991 14.8726,-130.6203 14.1709,-127.146 13.1726,-124.2479 11.8329,-122.1076 10.0955,-120.4785 9.0844,-119.934 A2.0174,2.0174 0 0 1 7.1526,-123.4764 Z" stroke-linecap="round" fill="#007782"/></g><g transform="matrix(0.9994, -0.0349, 0.0349, 0.9994, 1503.5401, 1477.0572)" opacity="1"><path d="M-1.4868,-1.1184 T-0.9013,-1.8964 0.3289,-4.0654 1.338,-6.4901 2.1413,-8.8156 3.2817,-11.5202 4.7774,-14.1353 6.6633,-16.4318 8.9502,-18.4835 11.5724,-20.5204 14.6053,-22.6029 18.2639,-24.7327 22.4696,-26.691 25.9747,-27.9836 28.2699,-28.755 29.9455,-29.2643 30.6782,-29.4631 A1.4755,1.4755 0 0 1 31.2258,-26.5633 T29.6679,-26.3271 26.8102,-25.6691 23.5212,-24.4624 19.5662,-22.5589 16.1275,-20.4681 13.3035,-18.3876 10.911,-16.3672 9.0102,-14.5551 7.5081,-12.6353 6.3655,-10.3892 5.534,-7.7576 4.8706,-5.3071 4.1585,-3.2348 3.218,-1.3234 2.0723,0.3396 1.4868,1.1184 A1.8605,1.8605 0 0 1 -1.4868,-1.1184 ZM32.4231,-27.8994 T32.4312,-27.7748 32.4393,-27.6502 A1.5109,1.5109 0 0 1 29.4266,-27.8831 T29.4537,-28.005 29.4808,-28.1269 A1.4755,1.4755 0 0 1 32.4231,-27.8994 ZM31.7633,-26.5044 T31.3928,-26.2071 30.2289,-24.9383 28.7282,-22.8847 26.9876,-20.2046 24.7545,-17.0948 22.5589,-14.0645 20.6017,-11.1045 18.9488,-8.3491 17.6957,-6.0235 16.2321,-3.473 14.1237,-0.5333 11.9574,1.8331 10.023,3.4988 8.1284,4.5397 6.1159,5.0058 3.6896,5.2518 1.0417,5.4222 -1.5705,5.8715 -2.8684,6.2711 A2.0591,2.0591 0 0 1 -3.9916,2.3089 T-3.1451,2.0602 -1.3348,1.5787 0.8903,1.346 3.3821,1.3003 5.7299,1.1626 7.6937,0.6069 9.6479,-0.7871 11.7344,-2.6241 13.7831,-4.9689 15.4493,-7.2893 16.7683,-9.6116 18.4042,-12.5082 20.3246,-15.6174 22.3705,-18.7054 24.3386,-21.804 26.0106,-24.7823 28.0072,-27.3401 29.682,-28.8058 30.1025,-29.0289 A1.5109,1.5109 0 0 1 31.7633,-26.5044 Z" stroke-linecap="round" fill="#007782"/></g><g transform="matrix(0.9994, -0.0349, 0.0349, 0.9994, 1612.9339, 1485.2647)" opacity="1"><path d="M-1.1726,-1.5589 T-0.4075,-2.1178 0.6959,-3.981 1.2216,-6.5958 1.5506,-10.7659 1.7863,-17.1553 1.7506,-24.5298 1.5572,-31.2828 1.4645,-37.3442 1.4237,-45.143 1.4086,-54.078 1.4056,-62.8522 1.4077,-70.9551 1.4116,-77.9128 1.4156,-83.6618 1.2262,-88.3114 0.9287,-92.2042 0.7062,-94.9514 0.4243,-97.6753 -0.7343,-99.9841 -3.3152,-101.4011 -6.0438,-102.7112 -8.1316,-103.9835 -9.7048,-106.1317 -10.8175,-108.9162 -11.6149,-112.574 -12.2457,-117.8267 -12.7308,-122.9571 -13.0006,-126.5487 -12.9168,-129.1994 -12.0862,-131.1592 -11.444,-131.8599 A1.5548,1.5548 0 0 1 -9.6683,-129.3073 T-10.0343,-128.7255 -10.2828,-126.7782 -9.9238,-123.2698 -9.2574,-118.2499 -8.4946,-113.4853 -7.335,-109.5501 -5.4185,-106.8622 -3.007,-105.454 -0.3605,-104.0134 1.7863,-102.8307 2.9342,-100.8445 3.1983,-97.7753 3.1319,-95.0947 3.2402,-92.3785 3.5485,-88.4114 3.7536,-83.6637 3.7654,-77.9152 3.7834,-70.9588 3.8114,-62.8588 3.8558,-54.0898 3.9275,-45.1712 4.0455,-37.4075 4.2437,-31.3863 4.5829,-24.5753 4.8161,-17.1026 4.8376,-10.5752 4.7746,-6.0781 4.4007,-3.0881 3.4244,-0.6423 1.9643,0.9468 1.1726,1.5589 A1.9507,1.9507 0 0 1 -1.1726,-1.5589 ZM-10.0684,-132.0599 T-9.3557,-131.8504 -7.5863,-130.5251 -5.8759,-128.4776 -4.6477,-126.3765 -3.3045,-123.8916 -1.8696,-121.1606 -0.4798,-118.2245 0.8529,-115.4917 1.8483,-113.4123 2.6995,-112.3198 3.1647,-112.0948 A1.6063,1.6063 0 0 1 1.0057,-109.7158 T0.0285,-111.3936 -1.5555,-114.2826 -2.9508,-116.9805 -4.4122,-119.7082 -6.0536,-122.3534 -7.493,-124.7178 -8.9339,-127.1785 -10.4739,-128.8931 -11.0438,-129.1073 A1.5548,1.5548 0 0 1 -10.0684,-132.0599 ZM0.4973,-111.1481 T0.5975,-112.2307 0.7485,-114.4752 1.0804,-117.1642 1.7348,-120.2824 2.272,-123.0896 3.2154,-125.789 4.9393,-129.1322 6.6387,-131.9329 8.6363,-133.5608 11.2304,-133.9082 13.3797,-132.5251 14.5158,-130.2571 15.0156,-128.0158 15.219,-125.6311 15.2723,-122.9519 15.3779,-120.0462 15.5353,-117.0635 16.5479,-116.2451 18.5034,-117.6403 20.4031,-119.5668 22.4506,-122.112 25.0591,-125.1586 27.4842,-127.8157 29.7956,-130.3397 31.1364,-131.8087 A1.6371,1.6371 0 0 1 32.8672,-129.0294 T32.2899,-128.8337 31.1169,-127.8352 29.5953,-125.9613 27.3659,-123.3136 25.0253,-120.2204 23.0053,-117.2326 21.0226,-114.7373 19.1609,-112.9995 17.2394,-111.7231 15.0674,-111.22 13.2017,-111.8781 12.1564,-114.0655 11.9078,-117.0225 11.9783,-119.9654 11.9377,-122.8063 11.6625,-126.1403 10.618,-129.5223 8.5688,-129.3159 6.919,-126.8679 5.9047,-124.8934 5.1527,-122.5751 4.7297,-119.7681 4.3408,-116.8862 4.1833,-114.29 3.9201,-111.8514 3.673,-110.6626 A1.6063,1.6063 0 0 1 0.4973,-111.1481 ZM33.6318,-130.2672 T33.6183,-129.6982 33.3558,-127.9297 32.4961,-125.6592 30.4872,-122.6779 28.1964,-119.8038 25.8814,-117.3786 23.4012,-115.228 21.2971,-113.3646 19.1804,-111.0739 17.1429,-108.9474 15.4864,-107.1608 13.9578,-105.6808 12.2671,-104.3907 10.56,-103.2808 8.6485,-101.8778 6.0001,-99.9533 4.4075,-98.909 A1.8248,1.8248 0 0 1 2.4525,-101.991 T3.2853,-102.5165 5.3534,-103.8589 8.1345,-105.5871 11.1752,-107.4608 13.4051,-109.1368 15.0659,-110.8553 16.9584,-113.0111 19.1872,-115.7111 22.1111,-118.3532 24.3214,-120.2259 25.6784,-121.947 27.2155,-123.8368 28.8674,-126.1429 29.9896,-128.4752 30.2801,-130.0102 30.3718,-130.5708 A1.6371,1.6371 0 0 1 33.6318,-130.2672 Z" stroke-linecap="round" fill="#007782"/></g><g transform="matrix(0.9994, -0.0349, 0.0349, 0.9994, 1615.0178, 1446.5319)" opacity="1"><path d="M-1.8248,0.5207 T-2.5105,-2.2331 -3.9171,-7.0115 -5.6133,-11.5417 -7.4844,-15.9707 -9.0574,-19.1226 -10.7085,-21.1183 -12.4961,-20.3983 -13.2748,-17.6485 -12.8867,-14.9803 -11.9725,-12.4604 -10.7286,-10.3676 -9.018,-8.5281 -6.9402,-6.729 -5.0941,-5.1209 -3.1422,-3.776 -0.8693,-1.9685 0.8512,-0.1112 2.2199,1.3322 2.985,2.0511 A1.8713,1.8713 0 0 1 0.455,4.8089 T-0.3271,4.1085 -1.9156,2.1454 -3.3566,0.162 -5.1048,-1.4518 -6.9425,-3.069 -8.6838,-4.6936 -11.0308,-6.6781 -13.1422,-8.9161 -14.6166,-11.4306 -15.821,-14.4963 -16.4532,-17.7759 -16.3401,-21.2066 -15.3384,-24.0283 -12.8344,-25.0212 -9.8809,-24.1869 -8.0447,-22.4985 -6.6744,-20.3834 -4.9163,-17.1242 -2.8237,-12.6647 -0.8273,-8.0501 0.9537,-3.2224 1.8248,-0.5207 A1.8976,1.8976 0 0 1 -1.8248,0.5207 Z" stroke-linecap="round" fill="#007782"/></g></svg>