<svg xmlns="http://www.w3.org/2000/svg" direction="ltr" width="360.3337088050547" height="212.81680662568453" viewBox="913.8084797915868 731.4869717924295 360.3337088050547 212.81680662568453" stroke-linecap="round" stroke-linejoin="round"><defs/><g transform="matrix(1, 0, 0, 1, 945.8085, 763.487)" opacity="1"><path d="M1.8803,-0.6924 T3.0076,2.6896 8.3191,11.2509 23.9316,25.4806 55.7327,46.7474 95.0234,69.1937 138.7296,89.9502 187.2802,107.814 227.9031,119.1629 255.5641,125.3696 272.795,128.7655 286.975,131.4105 294.7245,132.8544 A1.1753,1.1753 0 0 1 294.2955,135.1656 T286.5441,133.7317 272.3407,131.1072 255.0448,127.732 227.255,121.5402 186.4136,110.1865 137.5979,92.3058 93.6726,71.5714 54.0903,49.1269 21.7592,27.688 5.409,12.9282 -0.534,4.0278 -1.8803,0.6924 A2.0037,2.0037 0 0 1 1.8803,-0.6924 Z" stroke-linecap="round" fill="#1d1d1d"/></g><g transform="matrix(1, 0, 0, 1, 1213.829, 864.7738)" opacity="1"><path d="M1.4283,-1.2494 T2.5926,0.2278 6.2964,4.4423 11.4625,9.9364 16.4314,15.4783 20.2237,20.1453 22.8158,23.5908 25.1028,26.708 27.1881,29.2219 28.8027,31.0548 29.4424,33.2517 27.7339,35.8247 24.5146,37.9334 21.789,39.4549 18.8818,40.9874 15.1881,43.0156 11.8087,45.1429 8.6565,47.314 6.9168,48.515 A1.2008,1.2008 0 0 1 5.5432,46.545 T7.2714,45.3278 10.4692,43.0709 13.9527,40.805 17.6397,38.6781 20.4766,37.1403 23.0911,35.6244 25.4422,33.3252 25.3095,30.8234 23.1045,28.2056 20.7767,25.1592 18.1601,21.848 14.3594,17.3841 9.3061,12.0325 3.8914,6.6469 -0.1189,2.5999 -1.4283,1.2494 A1.8976,1.8976 0 0 1 1.4283,-1.2494 Z" stroke-linecap="round" fill="#1d1d1d"/></g></svg>