<svg xmlns="http://www.w3.org/2000/svg" direction="ltr" width="634.786096428738" height="224.83351219673386" viewBox="983.9128973602091 954.4667311117441 634.786096428738 224.83351219673386" stroke-linecap="round" stroke-linejoin="round"><defs/><g transform="matrix(1, 0, 0, 1, 1077.1084, 1013.7832)" opacity="1"><path d="M2.0972,0 T2.0707,1.0212 2.0366,3.7714 2.1816,6.8462 2.5151,9.6662 3.0064,12.4363 3.4991,14.7424 3.9046,17.3752 4.1986,20.5607 4.3078,23.3772 4.3429,26.2296 4.3533,29.1867 4.3708,32.003 4.3537,35.2115 4.3328,38.5334 4.3362,41.6258 4.3434,44.6534 4.3714,47.2283 4.4138,49.405 3.8677,51.9742 2.0122,53.8805 -1.1315,54.1129 -4.0251,53.8294 -6.9541,53.7072 -10.3825,53.6674 -13.0384,53.8494 -15.6453,54.2021 -18.1225,54.4628 -20.6373,54.5559 -23.6695,54.5761 -26.2398,54.605 -28.3956,54.6112 -30.914,55.0164 -33.3247,55.7069 -34.6995,57.1505 -35.337,60.0217 -35.9547,63.1757 -36.9469,66.14 -38.0276,68.7408 -39.4587,71.6196 -41.4307,74.7694 -43.2864,77.5938 -44.782,80.2551 -45.8597,82.5754 -46.9987,85.0019 -48.0997,87.3844 -49.0675,89.3736 -50.1643,91.2445 -51.3473,93.0449 -52.4733,94.7495 -53.8633,97.0995 -55.539,99.2697 -56.8251,100.9394 -58.2291,102.7288 -58.4373,104.8505 -56.9528,107.5444 -55.3553,110.1072 -53.6888,112.8836 -51.8685,116.0822 -50.4794,119.0531 -49.2897,121.8027 -47.8262,124.1193 -46.5705,126.2335 -45.9104,128.3763 -44.97,128.4681 -43.1358,127.2995 -41.1455,126.5645 -38.7979,125.7036 -36.5093,124.7715 -34.4297,123.3806 -32.4268,121.7032 -30.4479,119.7034 -28.4687,117.9057 -26.239,116.1108 -23.837,114.1613 -21.9413,112.8286 -20.3068,111.6422 -18.733,110.4764 -17.0915,109.4111 -15.0542,108.0737 -12.9153,106.9024 -10.8577,106.0118 -8.3131,104.7197 -5.5815,103.558 -3.2325,103.0061 -1.1652,102.2281 1.1248,101.3943 3.8726,101.7685 6.7113,102.8642 9.2629,103.9151 11.9594,104.8177 14.44,105.572 16.9481,106.372 19.7985,107.5235 22.4293,108.9229 24.9371,110.1375 27.0838,111.2411 28.8983,112.3922 31.0321,113.6599 33.0684,115.2322 34.8132,116.7991 36.5711,118.1281 38.6076,119.7465 40.7151,121.4597 42.7133,123.0936 44.7379,124.4461 46.1446,123.913 46.8625,121.5143 47.4321,118.861 48.0664,116.2689 48.9518,113.4026 50.0322,110.6663 50.9644,108.3353 51.8092,106.3557 52.6406,104.1751 53.6964,102.0653 55.2695,100.9583 57.5275,100.809 60.6075,101.0701 63.3655,101.2206 65.4235,101.4737 68.5469,101.8935 71.7545,102.1669 73.8881,102.2501 76.551,102.2617 79.5307,102.2218 82.0135,102.1603 84.3698,102.3839 86.5658,102.669 87.5969,101.7255 87.6096,99.6814 87.6406,97.243 87.4099,94.78 86.8278,92.3618 86.3717,89.7019 86.093,87.0419 85.665,83.9739 84.9633,80.3923 84.453,77.5772 84.2775,75.1648 84.1338,72.6803 84.039,70.3953 83.9781,68.1286 84.2387,65.3713 84.8878,62.7057 85.6642,60.5042 86.3241,58.0662 86.9604,56.0318 87.7778,54.0401 88.2151,52.909 A2.4148,2.4148 0 0 1 92.6191,54.8914 T92.2623,55.6378 91.2743,57.7339 90.2706,60.233 89.8352,62.4576 89.1148,64.52 88.4403,66.7738 88.4075,68.9802 88.366,71.2049 88.3581,73.7049 88.5037,76.4283 89.1037,79.5906 89.9444,83.017 90.559,86.4224 90.8851,89.0758 91.3155,91.3837 91.9401,93.7527 92.2111,95.9581 92.2106,98.3784 92.1788,100.8013 92.0047,103.114 91.438,105.2035 89.6178,106.6163 86.9556,107.0296 84.4119,106.5801 81.976,106.1954 79.5158,106.1237 76.5103,106.0495 73.8126,106.0034 71.625,105.9981 69.1508,106.0043 66.0825,105.7758 62.3923,105.5731 58.6219,105.3846 56.2487,106.6675 55.3445,109.0096 54.4728,111.1225 53.4388,113.6691 52.5744,116.0477 52.0232,118.5101 51.526,121.1032 50.8701,124.1899 50.0201,127.2124 48.6939,129.1047 46.7745,129.9418 44.2181,129.3499 41.8221,128.1125 39.8584,126.7344 37.7985,125.0163 36.015,123.4681 34.0726,121.8985 32.1269,120.4162 30.5587,118.866 28.8581,117.3448 26.7804,116.047 24.4605,114.6915 22.2566,113.5955 20.2173,112.5507 18.1015,111.3816 15.6102,110.3565 12.3729,109.4513 9.6314,108.7463 7.3602,107.9869 4.5336,106.889 2.1326,106.102 -0.1342,106.5178 -2.4023,107.2763 -4.3826,107.7181 -6.3843,108.4497 -8.6155,109.5112 -10.8648,110.3622 -13.1085,111.3436 -15.8162,113.0253 -18.1243,114.6183 -19.7735,115.8426 -21.3973,117.0539 -23.0043,118.4586 -24.5757,119.8591 -26.6168,121.494 -28.8717,123.5345 -31.0527,125.5019 -33.0102,126.8964 -34.9624,128.0971 -37.2544,129.2664 -39.5545,130.3836 -41.7114,131.4004 -43.5902,132.1336 -45.7907,132.8075 -48.1445,132.7261 -49.7493,131.006 -50.3995,128.7662 -51.2427,126.8168 -52.3443,124.8301 -53.3607,122.6428 -54.2931,120.4462 -55.4158,118.0419 -57.2415,115.0293 -58.9846,112.2234 -60.6424,109.5634 -62.1137,107.0568 -63.0359,104.6802 -62.7057,101.8325 -61.1676,99.4768 -59.7308,97.7461 -58.3144,95.9211 -56.8429,93.7521 -55.4485,91.5698 -53.9202,89.2833 -52.6262,86.8329 -51.2033,84.1774 -49.7962,81.3234 -48.4406,78.4874 -47.1152,76.0503 -45.7739,73.958 -44.0712,71.2977 -42.6123,68.3229 -41.4539,65.7403 -40.5674,63.5228 -40.004,61.0155 -39.7538,58.135 -39.5537,55.6028 -38.4631,53.4073 -35.9691,51.7739 -32.9717,51.1795 -30.2816,50.644 -27.668,50.298 -25.0111,50.342 -22.1948,50.3457 -19.0934,50.3268 -16.2298,50.2106 -13.4364,49.9459 -10.3384,49.8224 -7.7575,49.8681 -5.8025,49.9068 -3.8101,49.9747 -1.3399,50.2621 0.0862,49.405 0.1286,47.2283 0.1566,44.6534 0.1637,41.6259 0.1671,38.5335 0.1458,35.2121 0.1275,32.0051 0.141,29.1926 0.1381,26.2534 0.1285,23.4532 0.0878,20.803 -0.1208,17.9884 -0.5609,15.49 -1.1387,12.9444 -1.5468,10.2922 -1.8412,7.2843 -2.0366,3.7714 -2.0707,1.0212 -2.0972,0 A2.0972,2.0972 0 0 1 2.0972,0 ZM89.4679,56.1206 T88.4414,55.6795 86.2509,54.8162 83.5456,53.6033 80.9036,52.2594 78.3354,50.8025 75.3028,49.0814 72.5087,47.643 70.1327,46.5373 67.1136,45.5363 63.7467,44.435 60.8119,43.3666 57.8424,42.2496 54.8933,40.7108 52.3255,38.7717 50.1142,36.9006 48.1932,35.222 46.0376,33.6955 43.5772,32.6049 41.4311,32.0919 39.6374,31.7674 38.827,31.5504 A1.9895,1.9895 0 0 1 40.1491,27.7974 T40.534,28.0015 41.9171,28.438 43.8804,29.1914 46.1914,30.4986 48.4146,31.8904 49.9663,33.2821 51.7598,34.9643 53.8569,36.7541 56.0614,38.4018 58.7343,39.6908 61.7043,40.6436 64.667,41.5034 68.1255,42.6004 71.3711,43.7546 73.8435,44.8112 76.8106,46.0855 79.9725,47.4619 82.5219,48.56 84.8876,49.4013 87.6538,50.2731 90.2645,51.2111 91.3663,51.6797 A2.4148,2.4148 0 0 1 89.4679,56.1206 ZM37.9899,28.3648 T38.4926,27.7329 39.5662,26.0304 40.7047,23.9487 41.9392,21.9173 43.5327,19.5535 45.4954,16.6358 47.4576,13.688 49.0321,11.3431 50.3676,9.3588 51.5947,7.5692 52.6274,5.6572 53.5397,3.4652 54.6316,1.2279 56.1509,-0.7382 57.9038,-2.5233 59.0387,-3.8316 59.2671,-4.1402 A2.1829,2.1829 0 0 1 62.4311,-1.132 T61.8364,-0.7098 60.4528,0.6309 58.7716,2.311 57.3058,3.9668 56.1033,6.1273 54.5119,8.7201 52.851,11.0669 51.5093,12.9768 50.0514,15.2775 48.3311,18.3431 46.6673,21.4498 44.9491,24.6697 43.588,27.3802 42.6133,29.1066 41.513,30.4366 40.9862,30.983 A1.9895,1.9895 0 0 1 37.9899,28.3648 ZM58.683,-2.3656 T58.6405,-2.6171 58.5981,-2.8685 A2.2049,2.2049 0 0 1 62.9738,-3.4149 T62.9945,-3.1607 63.0152,-2.9066 A2.1829,2.1829 0 0 1 58.683,-2.3656 ZM59.4453,-1.3912 T58.5524,-2.0818 56.5342,-4.615 55.0107,-7.3409 54.2148,-9.287 53.4519,-11.2067 52.4553,-13.2708 51.5565,-15.8653 51.2153,-18.5599 51.131,-20.8636 50.0496,-22.1423 48.0933,-21.959 46.5665,-20.6809 44.7711,-18.7393 42.4378,-16.3553 40.5538,-14.4075 39.025,-13.0757 37.398,-11.9201 34.8578,-10.5046 32.0282,-9.2348 29.7055,-8.397 27.2338,-7.4823 25.0251,-6.6165 23.1983,-5.7914 21.0094,-4.6225 18.8058,-3.5374 17.1352,-2.5055 15.4961,-1.3029 13.529,-0.317 11.3306,0.3564 9.1166,0.5995 6.7172,0.7049 4.3289,1.0517 3.1999,1.3547 A2.3091,2.3091 0 0 1 1.3001,-2.8547 T2.5646,-3.3132 5.0192,-3.7581 7.5015,-3.7371 10.0714,-3.8123 12.3571,-4.1365 14.3796,-5.2569 16.5875,-6.5603 19.3343,-7.7712 21.7933,-8.9572 23.7161,-9.7931 25.8799,-10.7221 28.3063,-11.8556 30.5976,-12.9066 32.9891,-14.08 35.6184,-15.7311 37.5164,-17.3191 39.2337,-19.2121 41.4069,-21.5641 43.2413,-23.6336 45.2705,-25.2849 47.6385,-26.4999 49.6371,-26.9439 51.6318,-26.6246 53.716,-25.0518 55.0616,-22.4459 55.4045,-19.8448 55.5218,-17.2679 56.1738,-14.8209 57.1384,-12.7656 57.9548,-10.9391 58.8041,-9.1421 60.1347,-6.9957 61.5732,-5.3093 62.1266,-4.8921 A2.2049,2.2049 0 0 1 59.4453,-1.3912 Z" stroke-linecap="round" fill="#1d1d1d"/></g><g transform="matrix(-0.9659, -0.2588, 0.2588, -0.9659, 1343.5681, 1084.0422)" opacity="1"><path d="M2.2362,0 T2.2337,0.6808 2.2444,2.3698 2.0127,4.6483 1.0596,7.0359 -0.0485,9.2082 -0.8477,11.2924 -2.0398,13.3384 -3.4982,15.9002 -4.907,18.3922 -6.0213,20.3329 -7.0392,22.5222 -8.4112,24.8352 -9.616,27.0709 -10.7968,29.3725 -12.2716,31.964 -13.8298,34.7229 -15.3873,37.0554 -16.9249,39.1179 -18.3603,41.2059 -19.8277,43.5684 -21.3898,46.0194 -22.9104,47.8859 -24.2389,49.6575 -25.5307,51.4252 -27.0391,53.0563 -27.8292,53.9207 A2.4241,2.4241 0 0 1 -31.7433,51.0598 T-31.2294,50.3792 -29.4043,48.7169 -27.5377,46.5924 -26.0264,44.5396 -24.2453,42.1923 -22.8213,39.7395 -21.6583,37.8602 -20.383,36.0036 -18.9589,34.1286 -17.682,32.286 -16.5593,30.1656 -15.2141,27.9383 -14.1554,25.9533 -13.1135,23.6315 -11.6136,21.0618 -10.4152,18.7316 -8.988,16.2413 -7.5851,13.7001 -6.3611,11.6586 -5.1892,9.7485 -4.3383,7.747 -3.0684,5.1038 -2.2444,2.3698 -2.2337,0.6808 -2.2362,0 A2.2362,2.2362 0 0 1 2.2362,0 ZM-27.7183,51.2254 T-27.0497,52.3697 -25.7073,55.6898 -24.7353,59.058 -24.1083,61.1925 -23.3197,63.0997 -22.4012,64.9859 -21.0134,67.3651 -19.3051,69.7546 -17.5984,71.9308 -16.1024,74.0691 -13.6364,74.6306 -10.6674,73.774 -8.5081,72.8606 -5.9973,71.6782 -3.5759,70.3276 -1.7247,69.2174 0.6253,67.6486 3.2155,66.0535 5.6699,64.6141 7.9225,63.0336 9.9252,61.5158 12.5729,59.7633 15.1006,58.4178 17.3937,57.2758 19.8618,55.7657 22.0609,54.1722 24.1546,52.1318 26.8726,50.5487 29.6479,50.6482 32.1466,52.043 34.4332,53.6097 36.2774,54.8341 38.6723,55.9557 41.5296,57.0015 43.9146,57.895 46.6476,59.1358 49.3956,60.646 51.2371,61.8059 53.7693,63.3991 56.6889,65.1562 58.8679,66.1648 61.1662,67.2006 64.0632,68.284 66.5869,68.7763 69.0858,69.4509 71.5055,70.5299 73.4631,71.399 75.8708,72.3989 77.2169,73.0308 A2.3357,2.3357 0 0 1 75.4731,77.3644 T74.305,76.7057 72.1887,75.7258 70.0603,74.8587 67.9947,73.7768 65.5091,72.9769 62.9236,72.446 60.7922,71.7089 58.4217,70.4594 56.1447,69.0828 53.4543,67.5498 50.9773,66.1658 49.2249,65.217 47.3449,64.1769 45.0948,63.0254 42.8328,61.9629 40.9394,61.2722 38.5604,60.4152 35.306,59.0201 32.5813,57.751 30.934,56.5245 28.9606,55.0501 26.9218,55.316 25.1575,57.1945 23.1327,58.5514 20.7757,59.8237 17.8807,61.4272 15.4567,62.8173 13.5028,64.1258 11.3487,65.5777 8.9885,67.1124 6.128,68.8506 3.7159,70.4702 1.4724,71.9957 -0.8106,73.2414 -2.9004,74.2379 -5.9206,75.7103 -8.9075,77.3053 -11.2044,78.5908 -13.6188,79.5217 -16.3408,79.0916 -18.7062,77.2747 -20.1743,75.329 -21.7063,73.1179 -23.3109,70.6617 -24.6083,68.5608 -25.7508,66.7033 -26.8451,64.6577 -27.8805,62.4822 -28.732,60.2574 -29.9235,57.3237 -31.2657,54.6659 -31.8541,53.7551 A2.4241,2.4241 0 0 1 -27.7183,51.2254 ZM74.8173,73.4309 T75.1553,73.2229 75.8113,71.9671 76.8665,69.9835 78.2827,67.7791 79.4688,65.6227 80.8562,64.1749 82.3064,62.6381 83.4946,60.8249 84.9395,58.9643 86.5435,57.1134 88.4809,55.0274 90.6786,53.3354 92.9873,52.4316 95.7826,51.4956 98.4807,50.8554 101.0467,50.4871 103.4705,50.2364 106.1874,50.3806 109.0384,50.7105 111.3078,50.8783 113.8697,50.6106 116.3132,50.2486 118.1191,50.1697 118.9394,50.1451 A2.3356,2.3356 0 0 1 119.0105,54.8156 T117.816,54.823 115.3674,54.933 112.5628,55.2321 109.682,55.3439 107.0714,55.04 104.3216,54.8703 101.8732,55.0495 99.9667,55.4217 97.949,55.7578 95.5622,56.374 93.2843,57.155 91.5365,58.4613 90.0663,60.2662 88.752,61.7795 87.2886,63.7006 85.7573,65.8171 83.9991,67.9633 82.4354,70.0189 81.0726,72.0143 79.9375,74.1904 78.7768,76.0984 77.8727,76.9644 A2.3357,2.3357 0 0 1 74.8173,73.4309 ZM116.7666,51.7202 T117.069,50.8441 117.4585,48.7955 117.5982,46.6842 117.9435,44.2592 118.3785,41.2304 118.547,38.3107 118.5577,35.899 118.5333,33.6934 118.5134,31.2863 118.708,28.9803 119.0936,26.0353 119.3236,22.4319 119.6399,19.3863 120.5564,16.8117 121.5032,14.5351 121.9576,12.3979 122.1303,9.9431 122.129,7.395 122.1043,5.0032 122.4307,2.7344 122.0739,0.9434 120.3007,-0.1237 118.2235,-0.8169 116.0685,-1.8654 114.0265,-2.9228 111.675,-4.0123 109.0809,-5.5421 106.9376,-7.1035 104.7473,-8.5301 102.6228,-9.5603 100.3837,-10.6263 97.8097,-11.8434 95.6956,-12.9278 93.9675,-14.012 92.1049,-14.9663 90.149,-15.6716 88.0409,-16.3973 86.0263,-17.2327 84.21,-18.0693 81.9274,-19.2223 79.4081,-20.6586 76.7988,-21.9207 74.0599,-23.067 72.0733,-24.9239 71.2248,-27.1546 71.3204,-29.475 72.3125,-31.8545 73.9586,-34.0486 75.6605,-36.4322 77.2692,-39.0767 78.8048,-41.3021 80.3379,-43.0703 81.6616,-44.8305 82.5035,-46.5507 83.2478,-48.5506 84.0727,-50.5388 85.2053,-52.5862 86.3877,-54.3208 86.8342,-54.915 A2.3307,2.3307 0 0 1 91.0631,-52.954 T89.9059,-51.4642 88.3433,-49.1283 87.4412,-47.0153 86.5478,-44.711 85.4277,-42.5878 83.7025,-40.2845 81.9548,-37.9762 80.3727,-35.3353 78.6127,-32.4585 76.8082,-30.1127 76.0661,-28.0352 77.3903,-26.5695 79.927,-25.6156 82.7089,-24.3198 85.3884,-22.8127 88.0853,-21.3747 90.6713,-20.3403 92.8334,-19.5922 95.0881,-18.4139 97.7392,-16.9067 100.4416,-15.6717 102.6481,-14.7137 104.7432,-13.7909 106.7161,-12.8125 108.3993,-11.8012 110.3223,-10.4725 112.1832,-9.1455 114.4723,-7.9114 116.8626,-6.8428 118.7631,-5.9141 121.0393,-5.128 123.3357,-4.29 125.5459,-3.0849 127.4163,-1.3397 127.9511,1.0972 127.284,3.1762 126.7325,5.0964 126.6919,7.4341 126.6292,9.75 126.497,11.7661 126.0998,13.8991 125.2642,16.5119 124.2146,18.9934 123.533,21.2769 123.3427,23.426 123.2967,25.4516 123.0536,28.3074 122.8221,31.2995 122.772,34.2042 122.6888,37.1978 122.5316,39.9631 122.3278,42.3526 122.1659,44.5668 122.1119,46.8259 122.0156,49.4776 121.5441,52.19 121.1834,53.2405 A2.3356,2.3356 0 0 1 116.7666,51.7202 ZM86.9091,-52.8064 T86.6253,-53.3238 85.5657,-55.2992 84.23,-58.6324 83.2968,-62.1 82.448,-64.7012 81.303,-66.6993 80.157,-68.6106 79.127,-71.0985 78.1364,-73.6063 77.2154,-75.4045 76.3956,-77.3989 75.6292,-79.2795 75.1986,-80.0219 A2.2754,2.2754 0 0 1 79.5175,-81.4562 T79.4758,-81.2619 79.9426,-80.0129 80.847,-78.0232 81.5705,-76.1381 82.4102,-73.9415 83.3561,-71.6277 84.4838,-69.7634 85.8575,-67.5304 86.9551,-64.6275 87.6727,-62.2234 88.2862,-60.1779 89.5066,-57.5813 90.7007,-55.578 90.9881,-55.0626 A2.3307,2.3307 0 0 1 86.9091,-52.8064 ZM79.1046,-79.2807 T78.5991,-78.6409 77.3967,-77.2235 75.739,-75.6909 73.9584,-73.9128 72.2359,-72.2313 70.1133,-70.4501 67.4241,-68.0148 65.1557,-66.1028 63.208,-64.5909 61.1279,-62.9517 59.1807,-61.533 56.7665,-59.5725 54.4272,-57.8592 52.426,-56.9567 49.6622,-55.6279 46.1765,-54.0816 43.455,-53.0704 41.4576,-52.316 39.3476,-51.7055 36.961,-51.1393 34.4333,-50.2712 32.1289,-49.5599 29.908,-48.9366 27.7908,-48.2661 26.5257,-46.5692 26.2446,-43.79 26.4711,-41.5201 27.0435,-39.0096 27.7586,-35.7614 28.2582,-32.5699 28.3848,-29.5368 28.3879,-26.3658 28.3713,-23.2266 28.3887,-20.6206 28.416,-18.264 28.4367,-15.8893 28.7067,-13.198 29.3018,-10.5553 29.9928,-8.5781 30.507,-6.4883 30.8237,-4.1331 31.2286,-2.1765 31.476,-1.3574 A2.2805,2.2805 0 0 1 27.095,-0.0885 T26.8497,-0.9705 26.3797,-2.791 26.0733,-5.096 25.6165,-7.5183 24.8941,-9.7884 24.2722,-12.404 24.0129,-14.7878 24.0392,-16.9476 24.0566,-19.4243 24.0801,-21.8652 24.0622,-24.7544 24.0025,-27.9632 23.9216,-30.786 23.7718,-33.1076 23.3466,-35.4045 22.6557,-38.2651 22.0263,-41.1036 21.7527,-43.8161 21.8614,-46.8575 22.5011,-49.6615 24.0904,-51.3916 26.4335,-52.2779 28.9854,-52.9933 31.6943,-53.8276 34.4617,-54.6355 36.7199,-55.2832 38.9385,-55.8909 41.2643,-56.5655 43.5088,-57.1394 46.4065,-58.1409 48.9363,-59.3903 50.8777,-60.4309 53.1152,-61.6331 55.0591,-63.1137 57.4601,-65.2553 59.8029,-67.3018 61.7636,-68.8753 63.848,-70.7102 65.7469,-72.7469 67.6099,-74.5277 69.4971,-76.1177 71.594,-77.9647 73.5313,-79.9059 75.0164,-81.5193 75.6115,-82.1975 A2.2754,2.2754 0 0 1 79.1046,-79.2807 ZM29.818,1.4945 T28.6392,1.7701 26.4851,2.0772 24.4797,2.1027 22.3794,2.0747 20.0437,1.9971 17.4074,1.8726 14.9485,1.7966 12.9254,1.8003 10.9685,1.8107 8.8816,1.6348 6.705,1.3775 4.3822,1.3105 1.584,0.9745 -1.221,0.6487 -2.439,0.6741 A2.1823,2.1823 0 0 1 -2.061,-3.6741 T-1.3526,-3.6138 0.9078,-3.1913 3.7178,-2.7434 6.0378,-2.5243 8.5278,-2.1022 10.9706,-1.8156 12.919,-1.8091 14.9388,-1.8128 17.3892,-1.9023 20.0024,-2.0514 22.2927,-2.1741 25.1095,-2.351 27.8191,-2.7087 28.753,-2.9405 A2.2805,2.2805 0 0 1 29.818,1.4945 Z" stroke-linecap="round" fill="#1d1d1d"/></g><g transform="matrix(-0.2588, 0.9659, -0.9659, -0.2588, 1489.4081, 986.8653)" opacity="1"><path d="M1.7198,-0.9546 T2.2672,0.1189 3.1967,2.2671 4.0152,4.8278 4.7548,7.4298 5.4361,9.5806 6.0777,11.8128 6.6639,13.9616 7.308,15.835 8.499,18.1963 10.5469,20.789 12.5836,22.4957 14.1557,23.9759 14.8692,24.903 A2.0451,2.0451 0 0 1 11.3078,26.9147 T10.8245,26.2682 9.1248,24.465 7.1573,22.5116 5.7614,20.7665 4.6815,18.8627 3.9422,16.9864 3.2401,14.9215 2.6413,12.8511 1.9688,10.7814 0.8987,7.6759 -0.0908,4.362 -1.1008,1.9826 -1.7198,0.9546 A1.967,1.967 0 0 1 1.7198,-0.9546 ZM12.6099,23.9205 T13.2417,23.7603 15.368,22.7906 18.1226,21.446 20.214,20.398 22.3261,19.0066 25.1264,17.1089 27.6599,15.4527 29.6062,14.3263 31.7219,12.9748 34.4313,11.0832 36.83,9.6025 39.7969,8.0428 42.9016,6.4846 44.863,5.5957 46.7249,4.7678 48.5543,3.9611 50.7548,2.9119 53.6447,1.5227 56.1374,0.3438 58.5559,-0.2007 62.1429,0.4298 65.5503,1.8789 67.9044,3.1273 69.9183,4.2294 71.8791,5.3276 74.4857,6.7178 77.1073,8.2063 79.3118,9.5826 81.7169,10.9999 84.2686,12.4944 86.6158,13.9044 88.989,15.4165 91.5799,17.3483 93.7168,19.2732 95.4614,20.8243 97.4504,21.8381 100.0782,22.4918 102.72,23.2176 104.8112,23.9876 106.6187,24.1007 108.205,22.6469 109.3327,20.2519 110.2182,17.8406 110.8262,15.4997 111.2856,12.81 111.8192,10.2322 112.4989,8.1485 113.61,5.8602 114.9719,3.6994 116.5474,1.9375 119.1694,0.5551 121.8245,-0.1434 124.1298,-0.2656 126.6676,-0.2916 128.8465,-0.3143 131.5143,-0.3648 134.1439,-0.3968 136.6807,-0.4159 139.34,-0.4737 141.5702,-0.5577 144.0939,-0.6101 146.6952,-0.6491 147.6692,-1.895 147.4768,-4.6046 147.5739,-7.0478 147.6171,-9.461 147.6103,-12.0859 147.5875,-14.5447 147.7059,-17.2393 148.047,-19.8558 148.5583,-22.3509 149.0627,-24.5782 149.5942,-26.8713 149.9908,-29.2366 150.4079,-31.1713 151.2838,-33.2415 152.0538,-35.3852 152.4283,-37.5772 152.267,-39.991 151.5754,-42.1745 151.0964,-44.251 151.0157,-46.3494 149.3954,-47.7536 146.3916,-48.9508 143.8992,-50.3941 141.2655,-52.0387 138.032,-54.0369 134.8148,-55.8236 131.7765,-57.4072 128.8411,-58.8707 126.1837,-60.1252 123.6374,-61.4044 121.4034,-62.5316 119.6262,-63.4628 117.4119,-64.9331 115.459,-66.682 113.9884,-68.2522 112.1521,-69.9954 110.3105,-71.4454 108.2369,-72.6532 106.2248,-73.9975 104.931,-75.2058 104.4802,-75.7737 A2.2664,2.2664 0 0 1 108.1348,-78.455 T108.3882,-77.8906 109.6061,-76.775 111.372,-75.6393 112.9802,-74.4228 114.7405,-72.7132 116.7189,-70.4949 118.4576,-68.3273 120.4527,-66.3545 122.6399,-64.8807 124.7885,-63.6993 127.2668,-62.4551 129.962,-61.225 132.9798,-59.8509 136.1383,-58.3827 139.5639,-56.7257 142.9341,-54.9779 145.5527,-53.6111 147.9735,-52.5404 150.9598,-51.4918 153.8225,-50.134 155.39,-48.0907 155.7372,-45.6063 156.0424,-43.2566 156.6922,-40.7911 156.9319,-38.1964 156.5064,-35.3582 155.7429,-32.6603 154.8129,-30.1669 154.0994,-27.3446 153.5361,-24.4891 152.883,-21.5434 152.3472,-18.9077 152.0248,-16.7979 151.9097,-14.5399 151.8804,-12.0713 151.8516,-9.4283 151.8578,-6.9686 151.8309,-4.3995 151.7439,-1.8209 151.4985,0.3164 150.7678,2.257 149.0806,3.4069 146.6952,3.7291 144.0943,3.6903 141.5721,3.6387 139.3449,3.5575 136.6924,3.5085 134.1684,3.5043 131.5795,3.5223 128.9718,3.5633 126.8777,3.681 124.5829,3.9121 121.6806,4.4182 118.9986,5.4652 117.515,7.163 116.4042,9.2264 115.4477,11.2647 114.7595,13.6116 114.2614,16.2497 113.7621,18.9115 113.0438,21.8125 112.1055,24.5729 110.5344,27.0241 108.6222,28.6358 106.5343,28.8865 104.3259,28.4076 102.326,27.7137 100.0116,26.9499 97.3167,26.2016 94.7845,25.3788 92.6826,24.0696 90.8228,22.3452 88.9213,20.5579 86.8743,18.9459 84.591,17.414 82.2194,15.8882 79.9234,14.4419 77.4007,12.8225 74.4247,10.9736 71.895,9.5671 70.1043,8.6488 68.1785,7.6746 66.0676,6.6941 63.7899,5.538 61.7125,4.5195 59.3328,4.0675 56.5765,4.4388 54.2848,5.3787 52.0879,6.3112 49.1158,7.5541 45.4577,9.1432 42.4135,10.7543 40.3443,12.0585 38.0583,13.307 35.2938,15.0889 32.3144,17.018 29.8226,18.4746 27.4103,20.1027 24.4099,22.0724 21.9954,23.5949 19.8144,24.893 17.7486,26.0238 15.8923,27.0335 14.2341,27.7447 13.5672,27.8972 A2.0451,2.0451 0 0 1 12.6099,23.9205 ZM104.7615,-78.7715 T105.4803,-79.4557 106.7698,-80.8776 107.9451,-82.4394 109.4318,-84.7359 110.9412,-87.6294 111.9105,-90.2375 112.8803,-92.8372 113.9664,-95.14 114.6894,-96.9759 115.4357,-99.1451 116.495,-101.4488 116.4,-103.7881 115.3155,-105.8875 114.2012,-107.886 113.0769,-109.9431 112.1695,-111.8359 111.0946,-113.9551 109.8027,-115.8854 108.5189,-117.4671 107.374,-119.257 106.5633,-121.4614 105.7114,-123.588 104.7379,-125.6744 103.1394,-125.833 100.4959,-124.0776 97.6643,-122.5579 95.2716,-121.3184 93.3726,-120.4286 91.5186,-119.6031 89.681,-118.8111 87.7778,-117.961 85.3016,-116.4613 83.0207,-114.9282 81.2617,-113.8855 79.3955,-112.9169 77.0965,-111.7603 74.3453,-110.0467 71.6786,-108.1529 69.5111,-106.684 67.5232,-105.2318 65.1095,-103.6179 62.3647,-102.2229 59.622,-101.022 58.6633,-99.5094 58.7264,-97.1209 58.1602,-94.2475 57.5831,-91.4953 57.0157,-88.8322 56.5447,-86.071 56.3114,-83.555 56.2339,-81.3522 56.2161,-78.3141 56.2188,-75.2564 56.2363,-73.2148 56.4047,-70.6992 56.7289,-68.1279 57.1782,-65.9213 57.7391,-63.5507 58.2529,-60.8734 58.831,-58.1772 59.4319,-55.8858 59.4221,-52.8654 57.9132,-50.3924 55.1097,-49.5573 52.4862,-49.2433 50.2565,-49.2045 47.998,-49.1997 45.8344,-49.1935 43.8342,-49.1752 41.9016,-49.0552 39.9226,-48.8719 37.7481,-48.5189 35.034,-48.2487 32.3471,-48.2785 29.9943,-47.0795 27.8092,-44.5618 25.7907,-41.9064 23.8823,-39.0536 22.1178,-36.1267 20.3943,-33.4206 18.6257,-30.6728 16.8309,-27.8968 15.4255,-25.6515 14.3887,-23.7335 13.5312,-21.8234 12.7266,-19.7554 11.9358,-17.6629 11.1579,-15.7403 10.1157,-13.413 9.3668,-10.9402 9.026,-8.4719 7.8459,-5.9274 6.4421,-3.4132 5.23,-1.1404 4.4049,0.2342 4.3745,0.6695 A2.3392,2.3392 0 0 1 -0.0295,-0.9091 T0.5183,-2.0867 1.6584,-4.1241 2.7829,-6.011 4.3108,-8.2105 5.5891,-10.7843 6.4695,-13.4991 7.8843,-16.3092 9.1029,-18.7804 9.9733,-20.8877 10.9222,-23.0858 11.9956,-25.1393 13.2146,-27.0548 14.6516,-29.2611 16.3496,-32.0766 17.9844,-34.8632 19.5011,-37.5788 21.1098,-40.7318 22.8099,-43.8838 24.3989,-46.6639 25.5939,-48.8578 26.9256,-50.894 28.988,-52.2895 31.1579,-52.4737 33.4948,-52.1919 35.9048,-52.0278 38.7327,-52.2892 41.6999,-52.6217 43.8159,-52.7483 45.8049,-52.7496 47.9457,-52.7792 50.1533,-52.84 52.9504,-52.9573 55.6242,-53.5983 56.4572,-55.1361 55.8688,-57.4421 55.1171,-60.164 54.4756,-62.7037 53.7772,-65.1819 53.2003,-67.5738 52.9376,-70.459 52.8874,-73.2307 52.9246,-75.2826 53.0062,-78.3868 53.1328,-81.504 53.2769,-83.7858 53.4493,-86.4813 53.7214,-89.415 54.0907,-92.0519 54.3728,-94.7243 54.5238,-97.5038 54.617,-99.97 55.0922,-102.4418 56.4629,-104.365 58.6806,-105.4578 60.9964,-106.5086 63.1644,-107.5443 65.135,-108.6618 67.1332,-109.9499 69.4314,-111.3294 72.1346,-113.1725 74.5194,-114.7774 76.8995,-115.9236 79.323,-117.0988 81.7717,-118.6022 84.1929,-120.2191 86.954,-121.8005 90.6188,-123.6164 93.2504,-124.9816 95.4156,-126.2109 98.3126,-127.8935 101.7734,-129.8659 105.524,-130.7962 108.2152,-129.4294 109.5915,-126.6374 110.5727,-124.0935 111.2275,-122.02 112.2389,-119.9761 113.589,-118.1054 114.7951,-116.0693 116.3855,-113.1721 118.2149,-110.2103 119.4539,-108.0489 120.2598,-105.6013 120.9623,-102.7855 120.7001,-100.4035 119.6122,-98.1401 118.628,-95.5971 117.7657,-93.3343 116.8162,-91.221 115.8659,-88.7378 114.8124,-85.9733 113.691,-83.4016 112.2348,-80.8055 110.3004,-78.0499 108.603,-76.1428 107.8535,-75.4572 A2.2664,2.2664 0 0 1 104.7615,-78.7715 ZM3.5926,1.739 T2.5094,2.5729 1.4262,3.4068 A2.3493,2.3493 0 0 1 -1.4262,-0.3268 T-0.3369,-1.1527 0.7524,-1.9785 A2.3392,2.3392 0 0 1 3.5926,1.739 Z" stroke-linecap="round" fill="#1d1d1d"/></g></svg>